<svg id="bag" xmlns="http://www.w3.org/2000/svg" viewBox="0 0 618.38 748.53"><defs><style>.cls-1{fill:#af0138;}.cls-2{fill:#b20a88;}</style></defs><title>logo</title><rect id="outer_left" data-name="outer left" class="cls-1" x="203.9" y="-25.47" width="69.77" height="800.8" rx="34.28" ry="34.28" transform="translate(91.04 -63.12) rotate(22)"/><rect id="outer_right" data-name="outer right" class="cls-1" x="478.24" y="-25.49" width="69.77" height="801.22" rx="34.28" ry="34.28" transform="translate(-169.96 218.56) rotate(-22)"/><path id="n_horizontal" data-name="n horizontal" class="cls-1" d="M238.8,654.34v34.89H515.21V654.34a34.86,34.86,0,0,0-34.63-34.89H273.43A34.86,34.86,0,0,0,238.8,654.34Z" transform="translate(-66.8 -0.97)"/><path id="n_right" data-name="n right" class="cls-1" d="M474.29,625.18l-5,2A34.89,34.89,0,0,0,450,672.6l22.25,55.07A34.89,34.89,0,0,0,517.7,747h0A35,35,0,0,0,537,701.54l-24.26-60A29.52,29.52,0,0,0,474.29,625.18Z" transform="translate(-66.8 -0.97)"/><path id="n_left" data-name="n left" class="cls-1" d="M284.46,627.19l-5-2a29.61,29.61,0,0,0-38.43,16.31L217,701a35,35,0,0,0,19.28,45.42h0a35,35,0,0,0,45.42-19.28l22-54.57A35,35,0,0,0,284.46,627.19Z" transform="translate(-66.8 -0.97)"/><rect id="outer_left-2" data-name="outer left" class="cls-2" x="343.32" y="440.05" width="67.36" height="159.41" rx="33.09" ry="33.09" transform="translate(-209.56 895.79) rotate(-90)"/><rect id="outer_left-3" data-name="outer left" class="cls-2" x="367.64" y="367.06" width="67.36" height="188.97" rx="33.09" ry="33.09" transform="translate(-210.48 182.97) rotate(-22)"/></svg>
 