<svg id="cart" xmlns="http://www.w3.org/2000/svg" viewBox="0 0 749.13 597.19"><defs><style>.cls-1,.cls-2{fill:#af0138;}.cls-1{stroke:gray;}.cls-1,.cls-3,.cls-4{stroke-miterlimit:10;}.cls-3,.cls-4{stroke:#af0138;}.cls-3{stroke-width:20px;}.cls-4{stroke-width:10px;}</style></defs><title>cart</title><circle class="cls-1" cx="202.41" cy="546.32" r="50.36"/><circle class="cls-2" cx="449.66" cy="544.77" r="48.81"/><path class="cls-3" d="M526.06,479.9H105.91L15,179.54H619.69l-.55,1.77ZM107.9,477.18H524.09L616,182.26H18.63Z" transform="translate(-1.53 -92.31)"/><polygon class="cls-3" points="620.76 78.3 618.16 77.61 635.91 10 739.13 10 739.13 12.72 637.98 12.72 620.76 78.3"/><rect class="cls-4" x="42.85" y="178.29" width="545.09" height="2.72"/><rect class="cls-4" x="73.16" y="278.43" width="483.56" height="2.72"/><rect class="cls-4" x="314.46" y="88.59" width="2.69" height="297.64"/><polygon class="cls-4" points="418.25 386.14 437.55 88.5 440.24 88.68 420.93 386.31 418.25 386.14"/><polygon class="cls-4" points="191.44 88.68 194.12 88.5 213.31 386.14 210.63 386.32 191.44 88.68"/><rect class="cls-3" x="131.47" y="488.61" width="381.49" height="2.26"/><rect class="cls-3" x="523.39" y="395.79" width="0.59" height="95.08"/></svg>