<?xml version="1.0" encoding="utf-8"?>
<!-- Generator: Adobe Illustrator 21.0.0, SVG Export Plug-In . SVG Version: 6.00 Build 0)  -->
<svg version="1.1" id="cog"
	 xmlns="http://www.w3.org/2000/svg" xmlns:xlink="http://www.w3.org/1999/xlink" x="0px" y="0px" width="750px" height="750px"
	 viewBox="0 0 750 750" style="enable-background:new 0 0 750 750;" xml:space="preserve">
<style type="text/css">
	.st0{fill:#AF0138;}
	.st1{fill:#12125E;}
</style>
<title>in progress</title>
<path class="st0" d="M375,135.9c132.1,0,239.2,107.1,239.2,239.2S507.1,614.2,375,614.2c-132.1,0-239.2-107.1-239.2-239.2
	c0,0,0,0,0,0C135.9,242.9,242.9,135.9,375,135.9 M375,76.8C210.3,76.8,76.8,210.3,76.8,375S210.3,673.3,375,673.3
	c164.7,0,298.2-133.5,298.2-298.2c0,0,0,0,0,0C673,210.4,539.6,77,375,76.8z"/>
<rect x="325.1" y="1" class="st0" width="75.6" height="79.6"/>
<rect x="496.7" y="47" transform="matrix(0.515 -0.8572 0.8572 0.515 187.5064 500.9258)" class="st0" width="79.6" height="75.6"/>
<rect x="620.2" y="162.4" transform="matrix(0.8746 -0.4848 0.4848 0.8746 -14.5571 345.5203)" class="st0" width="81" height="77"/>
<rect x="622.5" y="505.8" transform="matrix(0.5299 -0.848 0.848 0.5299 -152.4943 817.0322)" class="st0" width="76.4" height="80.5"/>
<rect x="50.2" y="158.9" transform="matrix(0.4848 -0.8746 0.8746 0.4848 -128.9433 181.1517)" class="st0" width="78.2" height="82.3"/>
<rect x="48.5" y="498.5" transform="matrix(0.848 -0.5299 0.5299 0.848 -270.9579 128.6152)" class="st0" width="80.6" height="76.5"/>
<rect x="173.5" y="47.4" transform="matrix(0.8572 -0.515 0.515 0.8572 -14.44 120.7853)" class="st0" width="74.2" height="78.1"/>
<rect x="324.8" y="669" class="st0" width="76.3" height="80.3"/>
<rect x="498.4" y="623.6" transform="matrix(0.8572 -0.515 0.515 0.8572 -265.1548 371.0726)" class="st0" width="76" height="80"/>
<rect x="166.7" y="624.5" transform="matrix(0.515 -0.8572 0.8572 0.515 -468.0338 499.9431)" class="st0" width="82.2" height="78.1"/>
<rect x="-0.3" y="345.6" class="st0" width="94.4" height="69.8"/>
<rect x="660.7" y="341.9" class="st0" width="89.6" height="66.2"/>
<path class="st1" d="M373,176.7c109.4,0,198.1,88.7,198.1,198.1S482.4,572.9,373,572.9s-198.1-88.7-198.1-198.1c0,0,0,0,0,0
	C174.9,265.4,263.6,176.7,373,176.7 M373,127.8c-136.4,0-247,110.6-247,247s110.6,247,247,247s247-110.6,247-247c0,0,0,0,0,0
	C619.8,238.4,509.3,127.9,373,127.8z"/>
<path class="st1" d="M372.3,204.3c95,0,171.9,77,171.9,171.9s-77,171.9-171.9,171.9c-95,0-171.9-77-171.9-171.9c0,0,0,0,0,0
	C200.4,281.2,277.4,204.3,372.3,204.3 M372.3,161.8c-118.4,0-214.4,96-214.4,214.4s96,214.4,214.4,214.4
	c118.4,0,214.4-96,214.4-214.4c0,0,0,0,0,0C586.6,257.8,490.7,161.9,372.3,161.8z"/>
</svg>
