<?xml version="1.0" encoding="utf-8"?>
<!-- Generator: Adobe Illustrator 21.0.0, SVG Export Plug-In . SVG Version: 6.00 Build 0)  -->
<svg version="1.1" id="docs" xmlns="http://www.w3.org/2000/svg" xmlns:xlink="http://www.w3.org/1999/xlink" x="0px" y="0px"
	 width="855px" height="855px" viewBox="0 0 855 855" style="enable-background:new 0 0 855 855;" xml:space="preserve">
<style type="text/css">
	.st0{fill:#12125E;}
	.st1{fill:#F2F2F2;}
	.st2{fill:#00FF06;}
	.st3{fill:#AF0138;}
	.st4{fill:#FF9100;}
	.st5{fill:#FFF800;}
</style>
<title>code review</title>
<rect class="st0" width="855" height="855"/>
<path class="st1" d="M240.5,128H75.2c-1.1,0-2-4-2-9s0.9-9.1,2-9.1l0,0h165.3c1.1,0,2,4.1,2,9.1C242.5,123.9,241.6,128,240.5,128z"
	/>
<path class="st1" d="M478.3,197.7H186.5c-1.2,0-2.3-4.2-2.3-9.4s1-9.4,2.3-9.4l0,0h291.8c1.2,0,2.3,4.2,2.3,9.4
	S479.6,197.7,478.3,197.7z"/>
<path class="st2" d="M431.2,128H300.9c-3,0-5.5-4-5.5-8.8c0-4.9,2.5-8.8,5.5-8.8l0,0h130.3c3,0,5.5,4,5.5,8.8
	C436.8,124,434.3,128,431.2,128z"/>
<path class="st3" d="M128.6,197.4H75.4c-1.2,0-2.3-4-2.3-9s1-9,2.3-9l0,0h53.1c1.2,0,2.3,4,2.3,9
	C130.8,193.3,129.8,197.4,128.6,197.4z"/>
<path class="st4" d="M425.4,718.1H174c-1.1,0-1.9-5-1.9-11.2s0.9-11.2,1.9-11.2h251.5c1.1,0,1.9,5,1.9,11.2S426.5,718.1,425.4,718.1
	L425.4,718.1z"/>
<path class="st1" d="M128.6,718.3H75.4c-1.2,0-2.3-5.1-2.3-11.4c0-6.3,1-11.4,2.3-11.4l0,0h53.1c1.2,0,2.3,5.1,2.3,11.4
	S129.8,718.3,128.6,718.3z"/>
<polygon class="st3" points="333.3,299.6 203.8,427.5 333.3,555.4 362.5,526.3 264.5,428.3 363.3,329.6 "/>
<polygon class="st3" points="539.7,313.7 667,439.5 539.7,565.2 511,536.6 607.4,440.3 510.3,343.2 "/>
<circle class="st5" cx="675" cy="50.2" r="21"/>
<circle class="st2" cx="726.4" cy="50.2" r="21.4"/>
<circle class="st3" cx="782.8" cy="48.9" r="20.2"/>
<path class="st1" d="M643.2,128H491.5c-1,0-1.8-3.9-1.8-8.7c0-4.8,0.8-8.7,1.8-8.7h151.7c1,0,1.8,3.9,1.8,8.7S644.2,128,643.2,128z"
	/>
<path class="st1" d="M783.9,128h-86.5c-0.6,0-1.1-3.9-1.1-8.7c0-4.8,0.5-8.7,1.1-8.7h86.5c0.6,0,1.1,3.9,1.1,8.7
	S784.5,128,783.9,128z"/>
<path class="st4" d="M783,198.9H537c-1.6,0-3-4.7-3-10.5s1.3-10.5,3-10.5h246c1.6,0,3,4.7,3,10.5S784.7,198.9,783,198.9z"/>
<path class="st1" d="M633.2,718.1h-151c-1,0-1.8-5-1.8-11.2s0.8-11.2,1.8-11.2l0,0h151c1,0,1.8,5,1.8,11.2S634.2,718.1,633.2,718.1z
	"/>
<path class="st1" d="M240,792.1H75.7c-1.1,0-2-5-2-11.2s0.9-11.2,2-11.2l0,0H240c1.1,0,2,5,2,11.2S241.1,792.1,240,792.1z"/>
<path class="st2" d="M559.7,792.2H295.3c-1.8,0-3.2-5.1-3.2-11.3c0-6.3,1.4-11.3,3.2-11.3l0,0h264.5c1.8,0,3.2,5.1,3.2,11.3
	C562.9,787.2,561.5,792.2,559.7,792.2z"/>
<path class="st1" d="M770.1,792.1h-149c-1,0-1.8-5-1.8-11.2s0.8-11.2,1.8-11.2l0,0h149c1,0,1.8,5,1.8,11.2
	C771.9,787.1,771.1,792.1,770.1,792.1z"/>
<path class="st3" d="M768,717.6h-79c-0.5,0-1-4.8-1-10.7s0.4-10.7,1-10.7l0,0h79c0.5,0,1,4.8,1,10.7
	C768.9,712.8,768.5,717.6,768,717.6z"/>
<path class="st3" d="M510.2,289.3L407.9,604.1c-0.6,2.1-11.2,0.6-23.5-3.4s-21.8-9-21.1-11.1l0,0l102.3-314.9
	c0.7-2.1,11.3-0.5,23.6,3.5C501.5,282.2,510.9,287.2,510.2,289.3z"/>
</svg>
