<?xml version="1.0" encoding="utf-8"?>
<!-- Generator: Adobe Illustrator 21.0.0, SVG Export Plug-In . SVG Version: 6.00 Build 0)  -->
<svg version="1.1" id="folder"
	 xmlns="http://www.w3.org/2000/svg" xmlns:xlink="http://www.w3.org/1999/xlink" x="0px" y="0px" width="730px" height="730px"
	 viewBox="0 0 730 730" style="enable-background:new 0 0 730 730;" xml:space="preserve">
<style type="text/css">
	.st0{fill:#E8B65D;}
	.st1{fill:#F2F2F2;}
	.st2{fill:#6C63FF;}
	.st3{opacity:0.3;fill:#6C63FF;enable-background:new    ;}
	.st4{fill:#E6E6E6;}
	.st5{fill:url(#SVGID_1_);}
	.st6{fill:url(#SVGID_2_);}
	.st7{fill:url(#SVGID_3_);}
</style>
<title>resume folder_2</title>
<polyline class="st0" points="277.2,102 180.5,29.7 46.6,29.7 46.6,102 "/>
<rect x="46.6" y="91.3" class="st0" width="642.9" height="58.6"/>
<path class="st1" d="M721.8,188.7c0.1,1.1,0.1,2.1,0.2,3.2c0.1,0,0.2,0,0.3-0.1c0.1-0.8,0.2-1.5,0.3-2.3L721.8,188.7z"/>
<path class="st1" d="M708.1,175L542.4,9.3C533.9,9.5,525.4,9,517,9c-2.9,0-4.6-2.2-4.8-4.5c-96.7,65.4-180.9,141.8-238,242.9
	L528,501.2c39.4-74.3,90.5-137.1,153.9-188.1c-1.4-1.3-2.2-3.3-1.6-5.1c3.1-9.4,9.1-16.8,15.1-24.3c3-4.3,6.2-8.5,9.5-12.5
	c0,0,0,0,0.1-0.1c0.6-1,1.2-2,1.8-3.1c0.4-4.9,0.8-9.8,1.2-14.7C710.1,227.1,707.9,201.1,708.1,175z"/>
<rect x="607.4" y="19.2" transform="matrix(0.7071 -0.7071 0.7071 0.7071 90.2318 475.5644)" class="st2" width="23.6" height="219.3"/>
<rect x="590.4" y="3.6" transform="matrix(0.7071 -0.7071 0.7071 0.7071 67.0066 466.2051)" class="st3" width="11.8" height="297.3"/>
<rect x="563.4" y="30.5" transform="matrix(0.7071 -0.7071 0.7071 0.7071 40.0362 455.0211)" class="st3" width="11.8" height="297.3"/>
<rect x="536.5" y="57.5" transform="matrix(0.7071 -0.7071 0.7071 0.7071 13.1072 443.937)" class="st3" width="11.8" height="297.3"/>
<rect x="509.6" y="84.4" transform="matrix(0.7071 -0.7071 0.7071 0.7071 -13.7925 432.7823)" class="st3" width="11.8" height="297.3"/>
<rect x="482.7" y="111.3" transform="matrix(0.7071 -0.7071 0.7071 0.7071 -40.6923 421.6275)" class="st3" width="11.8" height="297.3"/>
<rect x="455.8" y="138.2" transform="matrix(0.7071 -0.7071 0.7071 0.7071 -67.592 410.4728)" class="st3" width="11.8" height="297.3"/>
<path class="st4" d="M353.1,566.2L85.7,326.8c63.1-119.6,157.6-213.5,266-297.1l267.4,239.4C502.2,343.7,414.2,443.3,353.1,566.2z"
	/>
<rect x="427.8" y="69.2" transform="matrix(0.6671 -0.745 0.745 0.6671 13.1233 387.0019)" class="st2" width="23.6" height="219.3"/>
<rect x="396.1" y="65.4" transform="matrix(0.6671 -0.745 0.745 0.6671 -25.6109 370.7761)" class="st3" width="11.8" height="297.3"/>
<rect x="370.7" y="93.7" transform="matrix(0.6671 -0.745 0.745 0.6671 -55.183 361.2543)" class="st3" width="11.8" height="297.3"/>
<rect x="345.3" y="122.1" transform="matrix(0.6671 -0.745 0.745 0.6671 -84.7798 351.8103)" class="st3" width="11.8" height="297.3"/>
<rect x="319.9" y="150.4" transform="matrix(0.6671 -0.745 0.745 0.6671 -114.3519 342.2884)" class="st3" width="11.8" height="297.3"/>
<rect x="294.6" y="178.8" transform="matrix(0.6671 -0.745 0.745 0.6671 -143.8712 332.8692)" class="st3" width="11.8" height="297.3"/>
<rect x="269.2" y="207.1" transform="matrix(0.6671 -0.745 0.745 0.6671 -173.468 323.425)" class="st3" width="11.8" height="297.3"/>
<rect x="243.8" y="235.5" transform="matrix(0.6671 -0.745 0.745 0.6671 -203.0401 313.9033)" class="st3" width="11.8" height="297.3"/>
<linearGradient id="SVGID_1_" gradientUnits="userSpaceOnUse" x1="369.2893" y1="-9.094947e-13" x2="369.2893" y2="591.0999" gradientTransform="matrix(1 0 0 -1 0 730)">
	<stop  offset="0" style="stop-color:#E8B65D"/>
	<stop  offset="1" style="stop-color:#F4A931"/>
</linearGradient>
<rect x="38.8" y="138.9" class="st5" width="661" height="591.1"/>
<linearGradient id="SVGID_2_" gradientUnits="userSpaceOnUse" x1="1109.9205" y1="-3.152" x2="1109.9205" y2="588.5283" gradientTransform="matrix(0.2567 -2.041467e-03 2.041483e-03 -1 -249.2226 729.2991)">
	<stop  offset="0" style="stop-color:#E8B65D"/>
	<stop  offset="1" style="stop-color:#F4A931"/>
</linearGradient>
<polygon class="st6" points="-0.2,138.8 74,139 71.5,729.9 31.7,729.8 "/>
<linearGradient id="SVGID_3_" gradientUnits="userSpaceOnUse" x1="698.7946" y1="9.997559e-02" x2="698.7946" y2="591.0999" gradientTransform="matrix(1 0 0 -1 0 730)">
	<stop  offset="0" style="stop-color:#E8B65D"/>
	<stop  offset="1" style="stop-color:#F4A931"/>
</linearGradient>
<polygon class="st7" points="700.9,729.9 668,729.9 668,138.9 729.6,138.9 "/>
</svg>
