<?xml version="1.0" encoding="utf-8"?>
<!-- Generator: Adobe Illustrator 21.0.0, SVG Export Plug-In . SVG Version: 6.00 Build 0)  -->
<svg version="1.1" id="poweroff" xmlns="http://www.w3.org/2000/svg" xmlns:xlink="http://www.w3.org/1999/xlink" x="0px" y="0px"
	 width="750px" height="750px" viewBox="0 0 750 750" style="enable-background:new 0 0 750 750;" xml:space="preserve">
<style type="text/css">
	.st0{fill:#AF0138;}
	.st1{fill:#FFFFFF;}
</style>
<title>in progress</title>
<path class="st0" d="M374.9,74.3C541,74.3,675.7,209,675.7,375.1S541,675.7,374.9,675.7S74.2,541,74.2,374.9l0,0
	C74.3,208.8,208.8,74.3,374.9,74.3 M374.9,0C167.9,0,0,167.8,0,374.9S167.9,750,374.9,750s374.9-167.9,374.9-374.9l0,0
	C749.6,168,581.9,0.2,374.9,0z"/>
<path d="M376.3,375.2c11.7,0,21.3-9.5,21.3-21.3V162.7c0-11.7-9.5-21.3-21.3-21.3s-21.3,9.5-21.3,21.3V354
	C355.1,365.7,364.6,375.2,376.3,375.2z"/>
<path class="st0" d="M462.1,212.2c-5.4-2.9-11.9-3.2-17.6-0.6c-5.6,2.6-9.7,7.6-11.1,13.6v0.1c-1.9,8.6,2.2,17.5,10,21.6
	c59.8,31.6,90.3,99.9,74,165.5c-16.3,65.6-75.2,111.7-142.8,111.7s-126.5-46.1-142.8-111.7s14.3-133.9,74-165.5
	c7.8-4.1,11.9-12.9,10.1-21.6v-0.1c-1.4-6-5.4-11-11-13.6c-5.6-2.6-12.1-2.4-17.5,0.6c-75.6,40.1-114.2,126.6-93.5,209.7
	c20.7,83.1,95.3,141.4,180.9,141.4c85.6,0,160.2-58.3,180.9-141.4C576.3,338.8,537.8,252.3,462.1,212.2L462.1,212.2z"/>
<path d="M375.7,129.5c136.3,0,246.8,110.5,246.8,246.8S512,623,375.7,623S128.9,512.5,128.9,376.2l0,0
	C129,239.9,239.4,129.5,375.7,129.5 M375.7,68.5C205.7,68.5,68,206.2,68,376.2s137.7,307.8,307.7,307.8s307.7-137.7,307.7-307.7l0,0
	C683.1,206.3,545.5,68.7,375.7,68.5z"/>
<path class="st1" d="M374.2,92.4v49.1c10.9,0,19.7,8.8,19.7,19.6v176.6c0,10.8-8.8,19.6-19.7,19.6v166.6c2.4,0,4.8,0.1,7.2,0
	c66.3-3.2,122.2-50.3,136.6-115c14.4-64.7-16.3-131-75-162c-7.8-4.1-12-12.9-10.1-21.6v-0.1c1.4-6,5.5-11.1,11.1-13.6
	c5.6-2.5,12.1-2.3,17.6,0.6c75.8,40.1,114.5,126.6,93.8,209.7C534.8,505,460,563.3,374.2,563.3v98.1c157.4,0,285-127.4,285-284.5
	S531.6,92.4,374.2,92.4z"/>
<path class="st1" d="M353.4,562.1c-81.2-9.3-146.8-70.4-161.9-150.6c-15.1-80.3,23.8-161,96-199.3c5.4-2.9,11.9-3.1,17.5-0.6
	c5.6,2.6,9.7,7.6,11,13.6v0.1c1.9,8.6-2.2,17.5-10.1,21.6c-59.8,31.6-90.3,99.8-74,165.4c16.3,65.6,75.2,111.6,142.8,111.5V357.3
	c-10.8,0-19.6-8.8-19.6-19.6V161.1c0-10.8,8.8-19.6,19.6-19.6V92.4c-157.1,0-284.5,127.4-284.5,284.5s127.4,284.5,284.5,284.5v-98.1
	C367.6,563.3,360.4,562.9,353.4,562.1z"/>
</svg>
