<?xml version="1.0" encoding="utf-8"?>
<!-- Generator: Adobe Illustrator 21.0.0, SVG Export Plug-In . SVG Version: 6.00 Build 0)  -->
<svg version="1.1" id="store" xmlns="http://www.w3.org/2000/svg" xmlns:xlink="http://www.w3.org/1999/xlink" x="0px" y="0px"
	 width="750px" height="750px" viewBox="0 0 750 750" style="enable-background:new 0 0 750 750;" xml:space="preserve">
<style type="text/css">
	.st0{fill:#9E9E9E;}
	.st1{fill:#DBDBDB;}
	.st2{fill:#ADADAD;}
	.st3{fill:#B3B3B3;}
	.st4{fill:#8C8C8C;}
	.st5{fill:#FFFFFF;}
	.st6{fill:#AF0138;}
	.st7{fill:#016FAF;}
	.st8{fill:#F2F2F2;}
	.st9{fill:#B20A88;}
</style>
<g>
	<g>
		<g>
			<g>
				<path class="st0" d="M287.9,215.4c-0.2-6.7-7.5-12.1-16.5-12c-9,0.1-16.1,5.7-15.9,12.4c0.2,6.8,7.5,12.1,16.5,12
					C281,227.7,288.1,222.2,287.9,215.4z"/>
			</g>
		</g>
		<g>
			<g>
				<path class="st0" d="M552.7,214.6c-0.2-6.8-7.5-12.1-16.5-12c-9,0.1-16.1,5.7-15.9,12.4c0.2,6.7,7.5,12.1,16.5,12
					C545.7,226.9,552.8,221.4,552.7,214.6z"/>
			</g>
		</g>
		<path class="st0" d="M467.3,28.2c-1.7-1.1-3.4-2.2-5.2-3.3c-9.6-5.6-20.2-10.1-32-13.1c-6.6-1.7-13.5-2.9-20.8-3.6
			c-9.1-0.9-18.8-1-29.1-0.2c-14.4,1.1-27,4.6-38.1,9.9c-25.7,12.3-42.7,34.3-53.9,60.1c-30.8,71-22.9,138.7-22.9,138.7l14.7,0.4
			c0,0-6.3-74.6,29.7-141.8c3.7-6.9,7.8-13.3,12.6-19.2c6.2-7.8,13.3-14.6,21.6-20c4.9-3.2,10.2-6,15.9-8.3c0,0,0,0,0,0
			c15.8-6.3,30.1-7.7,42-7.1c17,1,29,6.3,32.6,8.1c6.5,2.8,12.6,6.3,18.3,10.4c77,49.1,74.4,177.6,74.4,177.6l17.7-0.8
			C544.9,216,554.1,92.4,467.3,28.2z"/>
	</g>
	<g>
		<rect x="105.9" y="141" class="st1" width="540.8" height="50.3"/>
		<polygon class="st2" points="190.9,152.5 105.6,140.9 105.6,167 190.9,167 		"/>
		<polygon class="st2" points="562.1,152.5 647.4,140.9 647.4,167 562.1,167 		"/>
		<polygon class="st3" points="88.5,164.1 190.9,152.5 190.9,178.5 88.5,178.5 		"/>
		<polygon class="st3" points="664.5,164.1 562.1,152.5 562.1,178.5 664.5,178.5 		"/>
		<g>
			<polygon class="st4" points="105.5,141 105.6,141 105.6,141 			"/>
			<polygon class="st4" points="576.1,152.3 647.4,142.6 647.4,139.2 522.9,139.2 497.3,139.2 232.6,139.2 207,139.2 105.6,139.2 
				105.6,141 207,141 207,141.1 497.3,141 497.3,141.1 647.2,141 562.1,152.5 664.5,164.1 88.5,164.1 190.8,152.6 105.6,141 
				105.6,142.6 177,152.3 88.5,162.3 88.5,165.8 664.5,165.8 664.5,162.3 			"/>
		</g>
	</g>
	<polygon class="st5" points="675.9,695.4 77.1,695.4 88.5,597.2 88.5,164.1 664.5,164.1 664.5,597.2 	"/>
	<path class="st6" d="M88.7,273.1c0,2,2.1,3.5,4.7,3.5c2.6,0,4.7-1.6,4.7-3.5l0.1-25.6c0-2,2.1-3.5,4.7-3.5c2.6,0,4.7,1.6,4.7,3.5
		l0,14.6c0,2,2.1,3.5,4.7,3.5c2.6,0,4.7-1.6,4.7-3.5v-4.7h0.1v-2.1c0-2,2.1-3.5,4.7-3.5c2.6,0,4.7,1.6,4.7,3.5V270
		c0.2,1.8,2.2,3.2,4.7,3.2c2.6,0,4.7-1.6,4.7-3.5v-2.6h0v-27.5c0-2,2.1-3.5,4.7-3.5c2.6,0,4.7,1.6,4.7,3.5l0.1,33.7
		c0,2,2.1,3.5,4.7,3.5c2.6,0,4.7-1.6,4.7-3.5v-18c0-2,2.1-3.5,4.7-3.5c2.6,0,4.7,1.6,4.7,3.5v2.1h0V289c0,2,2.1,3.5,4.7,3.5
		c2.6,0,4.7-1.6,4.7-3.5v-39.2c0-2,2.1-3.5,4.7-3.5c2.6,0,4.7,1.6,4.7,3.5v11.9c0.3,1.7,2.3,3,4.6,3c2.6,0,4.7-1.6,4.7-3.5l0.2-13.2
		c0-2,2.1-3.5,4.7-3.5c2.6,0,4.7,1.6,4.7,3.5v9.9h0v14.3c0,2,2.1,3.5,4.7,3.5c2.6,0,4.7-1.6,4.7-3.5v-14.3h0.1v-2.1
		c0-2,2.1-3.5,4.7-3.5c2.6,0,4.7,1.6,4.7,3.5v24.4c0.2,1.8,2.2,3.2,4.7,3.2c2.6,0,4.7-1.6,4.7-3.5l0-39.8c0-2,2.1-3.5,4.7-3.5
		c2.6,0,4.7,1.6,4.7,3.5l0.1,21.1c0,2,2.1,3.5,4.7,3.5c2.6,0,4.7-1.6,4.7-3.5v-5.4c0-2,2.1-3.5,4.7-3.5c2.6,0,4.7,1.6,4.7,3.5l0,4.7
		c0,2,2.1,3.5,4.7,3.5c2.6,0,4.7-1.6,4.7-3.5v-10.2c0-2,2.1-3.5,4.7-3.5c2.2,0,4.1,1.2,4.6,2.8v26.6c0,2,2.1,3.5,4.7,3.5
		c0.5,0,1-0.1,1.4-0.2c1.9-0.4,3.3-1.8,3.3-3.4l0.1-20.8c0-2,2.1-3.5,4.7-3.5c2.6,0,4.7,1.6,4.7,3.5l0,14.6c0,2,2.1,3.5,4.7,3.5
		c2.6,0,4.7-1.6,4.7-3.5l0.1-6.8c0-2,2.1-3.5,4.7-3.5c2.6,0,4.7,1.6,4.7,3.5v20.6c0.2,1.8,2.2,3.2,4.7,3.2c2.6,0,4.7-1.6,4.7-3.5
		v-18h0v-17.9c0-2,2.1-3.5,4.7-3.5c2.6,0,4.7,1.6,4.7,3.5l0.1,33.7c0,2,2.1,3.5,4.7,3.5c2.6,0,4.7-1.6,4.7-3.5v-18
		c0-2,2.1-3.5,4.7-3.5c2.6,0,4.7,1.6,4.7,3.5v2.1h0v21.9c0,2,2.1,3.5,4.7,3.5c2.6,0,4.7-1.6,4.7-3.5v-29.5c0-2,2.1-3.5,4.7-3.5
		s4.7,1.6,4.7,3.5v6.1v15.5v0.3c0,2,2.2,3.6,4.8,3.6c2.7,0,4.8-1.6,4.8-3.6v-5.4c0.1-0.3,0.2-0.7,0.2-1l0.1-25.6
		c0-2,2.1-3.5,4.7-3.5c2.6,0,4.7,1.6,4.7,3.5l0,14.6c0,2,2.1,3.5,4.7,3.5c2.6,0,4.7-1.6,4.7-3.5v-4.7h0.1v-2.1c0-2,2.1-3.5,4.7-3.5
		c2.6,0,4.7,1.6,4.7,3.5V270c0.2,1.8,2.2,3.2,4.7,3.2c2.6,0,4.7-1.6,4.7-3.5v-2.6h0v-27.5c0-2,2.1-3.5,4.7-3.5
		c2.6,0,4.7,1.6,4.7,3.5l0.1,33.7c0,2,2.1,3.5,4.7,3.5c2.6,0,4.7-1.6,4.7-3.5v-18c0-2,2.1-3.5,4.7-3.5c2.6,0,4.7,1.6,4.7,3.5v2.1h0
		V289c0,2,2.1,3.5,4.7,3.5c2.6,0,4.7-1.6,4.7-3.5v-39.2c0-2,2.1-3.5,4.7-3.5c2.6,0,4.7,1.6,4.7,3.5v11.9c0.4,1.7,2.3,3,4.6,3
		c2.6,0,4.7-1.6,4.7-3.5l0.2-13.2c0-2,2.1-3.5,4.7-3.5c2.6,0,4.7,1.6,4.7,3.5v9.9h0v14.3c0,2,2.1,3.5,4.7,3.5s4.7-1.6,4.7-3.5v-14.3
		h0.1v-2.1c0-2,2.1-3.5,4.7-3.5c2.6,0,4.7,1.6,4.7,3.5v24.4c0.3,1.8,2.2,3.2,4.7,3.2c2.6,0,4.7-1.6,4.7-3.5l0-39.8
		c0-2,2.1-3.5,4.7-3.5c2.6,0,4.7,1.6,4.7,3.5l0.1,21.1c0,2,2.1,3.5,4.7,3.5c2.6,0,4.7-1.6,4.7-3.5v-5.4c0-2,2.1-3.5,4.7-3.5
		c2.6,0,4.7,1.6,4.7,3.5l0,4.7c0,2,2.1,3.5,4.7,3.5c2.6,0,4.7-1.6,4.7-3.5v-10.2c0-2,2.1-3.5,4.7-3.5c2.3,0,4.1,1.2,4.6,2.8v26.6
		c0,2,2.1,3.5,4.7,3.5c0.5,0,1-0.1,1.4-0.2c1.9-0.4,3.3-1.8,3.3-3.4l0.1-20.8c0-2,2.1-3.5,4.7-3.5c2.6,0,4.7,1.6,4.7,3.5l0,14.6
		c0,2,2.1,3.5,4.7,3.5c2.6,0,4.7-1.6,4.7-3.5l0.1-6.8c0-2,2.1-3.5,4.7-3.5c2.6,0,4.7,1.6,4.7,3.5v20.6c0.2,1.8,2.2,3.2,4.7,3.2
		c2.6,0,4.7-1.6,4.7-3.5v-18h0v-17.9c0-2,2.1-3.5,4.7-3.5s4.7,1.6,4.7,3.5l0.1,33.7c0,2,2.1,3.5,4.7,3.5c2.6,0,4.7-1.6,4.7-3.5v-18
		c0-2,2.1-3.5,4.7-3.5c2.6,0,4.7,1.6,4.7,3.5v2.1h0v21.9c0,2,2.1,3.5,4.7,3.5c2.6,0,4.7-1.6,4.7-3.5v-29.5c0-2,2.1-3.5,4.7-3.5
		c2.6,0,4.7,1.6,4.7,3.5v6.1v44.5v0.3c0,2,2.2,3.6,4.8,3.6c2.7,0,4.8-1.6,4.8-3.6v-44.8V249v-84.9h-9.7H381.1H372h-0.6H88.7
		L88.7,273.1z"/>
	<g>
		<path class="st1" d="M232.6,222.5c-10.3,0-18.9-6.3-19.1-14.1c-0.2-7.9,8.2-14.5,18.7-14.6l0.3,0c10.3,0,18.9,6.3,19.1,14.1
			c0.2,7.9-8.2,14.5-18.7,14.6L232.6,222.5z"/>
		<path class="st7" d="M232.6,195.9c8.8,0,16.1,5.3,16.2,12c0.2,6.8-7,12.3-15.9,12.4c-0.1,0-0.2,0-0.3,0c-8.8,0-16.1-5.3-16.2-12
			c-0.2-6.8,7-12.3,15.9-12.4C232.4,195.9,232.5,195.9,232.6,195.9 M232.6,191.6l-0.4,0c-12.1,0.2-21.7,7.7-21.5,16.8
			c0.2,8.9,10,16.2,21.9,16.2h0.4c12.1-0.2,21.7-7.7,21.5-16.8C254.3,198.9,244.4,191.6,232.6,191.6L232.6,191.6z"/>
	</g>
	<g>
		<path class="st1" d="M497.3,221.7c-10.3,0-18.9-6.3-19.1-14.1c-0.2-7.9,8.2-14.5,18.7-14.6l0.3,0c10.3,0,18.9,6.3,19.1,14.1
			c0.2,7.9-8.2,14.5-18.7,14.6L497.3,221.7z"/>
		<path class="st7" d="M497.3,195.1c8.8,0,16.1,5.3,16.2,12c0.2,6.8-7,12.3-15.9,12.4c-0.1,0-0.2,0-0.3,0c-8.8,0-16.1-5.3-16.2-12
			c-0.2-6.8,7-12.3,15.9-12.4C497.1,195.1,497.2,195.1,497.3,195.1 M497.3,190.8l-0.4,0c-12.1,0.2-21.7,7.7-21.5,16.8
			c0.2,8.9,10,16.2,21.9,16.2h0.4c12.1-0.2,21.7-7.7,21.5-16.8C519,198.1,509.2,190.8,497.3,190.8L497.3,190.8z"/>
	</g>
	<path class="st2" d="M428.1,20.7c-1.7-1.1-3.4-2.2-5.2-3.3c-9.6-5.6-20.2-10.1-32-13.1c-6.6-1.7-13.5-2.9-20.8-3.6
		c-9.1-0.9-18.8-1-29.1-0.2c-14.4,1.1-27,4.6-38.1,9.9c-25.7,12.3-42.7,34.3-53.9,60.1c-30.8,71-22.9,138.7-22.9,138.7l14.7,0.4
		c0,0-6.3-74.6,29.7-141.8c3.7-6.9,7.8-13.3,12.6-19.2c6.2-7.8,13.4-14.6,21.6-20c4.9-3.2,10.2-6,15.9-8.3c0,0,0,0,0,0
		c15.8-6.3,30.1-7.7,42-7.1c17,1,29,6.3,32.6,8.1c6.5,2.8,12.6,6.3,18.3,10.4c77,49.1,74.4,177.6,74.4,177.6l17.7-0.8
		C505.7,208.5,515,84.9,428.1,20.7z"/>
	<polygon class="st8" points="88.5,596.6 88.5,597.2 77.1,695.4 675.9,695.4 664.5,597.2 664.5,596.6 	"/>
</g>
<path id="outer_left" class="st6" d="M380.2,328.3L380.2,328.3c-7.2-2.9-15.4,0.6-18.3,7.8L251.4,609.5c-2.9,7.2,0.6,15.4,7.8,18.3
	h0c7.2,2.9,15.4-0.6,18.3-7.8l110.4-273.3C390.8,339.5,387.3,331.2,380.2,328.3z"/>
<path id="outer_right" class="st6" d="M369.9,328.3l-0.2,0.1c-7.1,2.9-10.6,11-7.7,18.2l110.6,273.7c2.9,7.1,11,10.6,18.2,7.7
	l0.2-0.1c7.1-2.9,10.6-11,7.7-18.2L388.1,336C385.2,328.9,377,325.4,369.9,328.3z"/>
<path id="n_horizontal" class="st6" d="M319.7,590.7l0,14.1l111.5,0l0-14.1c0-7.7-6.3-14.1-14-14.1l-83.5,0
	C326,576.7,319.7,583,319.7,590.7z"/>
<path id="n_right" class="st6" d="M414.6,579l-2,0.8c-7.2,2.9-10.7,11.1-7.8,18.3l9,22.2c2.9,7.2,11.1,10.7,18.3,7.8h0
	c7.2-2.9,10.7-11.1,7.8-18.3l-9.8-24.2C427.7,579.5,420.7,576.5,414.6,579z"/>
<path id="n_left" class="st6" d="M338.1,579.8l-2-0.8c-6.1-2.5-13,0.5-15.5,6.6l-9.7,24c-2.9,7.2,0.6,15.4,7.8,18.3h0
	c7.2,2.9,15.4-0.6,18.3-7.8l8.9-22C348.8,590.9,345.3,582.7,338.1,579.8z"/>
<path id="outer_left_1_" class="st9" d="M343.3,532.2v8.4c0,5.1,4.2,9.4,9.4,9.4l45.6,0c5.2,0,9.4-4.2,9.4-9.4v-8.4
	c0-5.2-4.2-9.4-9.4-9.4l-45.6,0C347.5,522.9,343.3,527.1,343.3,532.2z"/>
<path id="outer_left_2_" class="st9" d="M374.9,476.1l-7.8,3.2c-4.8,1.9-7.1,7.4-5.2,12.2l21.5,53.3c1.9,4.8,7.4,7.1,12.2,5.2
	l7.8-3.2c4.8-1.9,7.1-7.4,5.2-12.2L387,481.2C385.1,476.5,379.6,474.1,374.9,476.1z"/>
</svg>
