<?xml version="1.0" encoding="utf-8"?>
<!-- Generator: Adobe Illustrator 21.0.0, SVG Export Plug-In . SVG Version: 6.00 Build 0)  -->
<svg version="1.1" id="task" xmlns="http://www.w3.org/2000/svg" xmlns:xlink="http://www.w3.org/1999/xlink" x="0px" y="0px"
	 width="750px" height="750px" viewBox="0 0 750 750" style="enable-background:new 0 0 750 750;" xml:space="preserve">
<style type="text/css">
	.st0{fill:#AF0138;}
	.st1{fill:url(#SVGID_1_);}
	.st2{fill:url(#SVGID_2_);}
	.st3{fill:url(#SVGID_3_);}
	.st4{fill:url(#SVGID_4_);}
	.st5{fill:url(#SVGID_5_);}
	.st6{fill:url(#SVGID_6_);}
	.st7{fill:url(#SVGID_7_);}
	.st8{fill:url(#SVGID_8_);}
	.st9{fill:url(#SVGID_9_);}
	.st10{fill:url(#SVGID_10_);}
	.st11{fill:#CECEE0;}
	.st12{opacity:0.5;}
	.st13{opacity:0.7;fill:none;stroke:#3F3D56;stroke-linecap:round;stroke-miterlimit:10;enable-background:new    ;}
</style>
<path class="st0" d="M707,728.5c0,11.9-11.6,21.5-26,21.5H71c-14.4,0-26-9.6-26-21.5V22.7C45,10.8,56.6,1.2,71,1.2h610
	c14.4,0,26,9.6,26,21.5V728.5z"/>
<linearGradient id="SVGID_1_" gradientUnits="userSpaceOnUse" x1="270.0234" y1="183.5985" x2="532.622" y2="672.3245">
	<stop  offset="0" style="stop-color:#FFFFFF"/>
	<stop  offset="1" style="stop-color:#FFFFFF"/>
</linearGradient>
<rect x="102.4" y="50.9" class="st1" width="544.6" height="654.9"/>
<g>
	<linearGradient id="SVGID_2_" gradientUnits="userSpaceOnUse" x1="374.8155" y1="30.4761" x2="374.8155" y2="101.3017">
		<stop  offset="0" style="stop-color:#979A9C"/>
		<stop  offset="3.786215e-02" style="stop-color:#9A9C9E"/>
		<stop  offset="6.062584e-02" style="stop-color:#A2A5A7"/>
		<stop  offset="7.940219e-02" style="stop-color:#B0B3B4"/>
		<stop  offset="9.590770e-02" style="stop-color:#C4C7C8"/>
		<stop  offset="0.1038" style="stop-color:#D1D3D4"/>
		<stop  offset="0.1145" style="stop-color:#CCC9CA"/>
		<stop  offset="0.1326" style="stop-color:#C0AFB0"/>
		<stop  offset="0.1558" style="stop-color:#AC8585"/>
		<stop  offset="0.1829" style="stop-color:#914A4B"/>
		<stop  offset="0.2077" style="stop-color:#750F0F"/>
		<stop  offset="0.2332" style="stop-color:#771919"/>
		<stop  offset="0.2763" style="stop-color:#7D3333"/>
		<stop  offset="0.3224" style="stop-color:#855656"/>
		<stop  offset="0.4262" style="stop-color:#EDD3D3"/>
		<stop  offset="0.4297" style="stop-color:#E2CACA"/>
		<stop  offset="0.4414" style="stop-color:#C2B1B1"/>
		<stop  offset="0.4545" style="stop-color:#A79B9B"/>
		<stop  offset="0.4694" style="stop-color:#918989"/>
		<stop  offset="0.4866" style="stop-color:#807C7C"/>
		<stop  offset="0.5079" style="stop-color:#747272"/>
		<stop  offset="0.5375" style="stop-color:#6D6D6D"/>
		<stop  offset="0.6175" style="stop-color:#6B6B6B"/>
		<stop  offset="0.6344" style="stop-color:#8C8C8C"/>
		<stop  offset="0.6629" style="stop-color:#BDBDBD"/>
		<stop  offset="0.6879" style="stop-color:#E1E1E1"/>
		<stop  offset="0.7082" style="stop-color:#F7F7F7"/>
		<stop  offset="0.7213" style="stop-color:#FFFFFF"/>
		<stop  offset="0.7446" style="stop-color:#FCFCFC"/>
		<stop  offset="0.7623" style="stop-color:#F2F2F3"/>
		<stop  offset="0.7781" style="stop-color:#E2E2E3"/>
		<stop  offset="0.7929" style="stop-color:#CBCBCC"/>
		<stop  offset="0.8069" style="stop-color:#ADADAF"/>
		<stop  offset="0.8202" style="stop-color:#89898C"/>
		<stop  offset="0.8251" style="stop-color:#7A7A7D"/>
	</linearGradient>
	<path class="st2" d="M543.8,31.3h-338c-9.5,0-17.2,6.7-17.2,15v29.9c0,8.3,7.7,15,17.2,15l120.6,0l0.3,0v0c0.8,0,6.4,0.1,11,3.7
		c8.2,6.5,20.4,11.4,36,11.4h2c15.6,0,27.8-4.9,36-11.4c4.6-3.6,10.2-3.7,11-3.7l0,0l0.3,0h120.6c9.5,0,17.2-6.7,17.2-15V46.4
		C560.9,38.1,553.3,31.3,543.8,31.3z M551.2,76.2c0,3.5-3.3,6.4-7.4,6.4H423.7c-0.2,0-0.5,0-0.8,0c-2.6,0-10.8,0.7-17.1,5.8
		c-6.2,5-16.7,9.4-29.9,9.3h-2c-13.2,0-23.7-4.4-29.9-9.3c-6.4-5.1-14.5-5.8-17.1-5.8c-0.3,0-0.6,0-0.8,0H205.8
		c-4,0-7.4-2.9-7.4-6.4V46.4c0-3.5,3.3-6.4,7.4-6.4l160.2,0l17.5,0v0h160.2c4,0,7.4,2.9,7.4,6.4V76.2z"/>
	<linearGradient id="SVGID_3_" gradientUnits="userSpaceOnUse" x1="374.814" y1="161.6397" x2="374.814" y2="4.4276">
		<stop  offset="0" style="stop-color:#979A9C"/>
		<stop  offset="8.369531e-02" style="stop-color:#9A9C9E"/>
		<stop  offset="0.134" style="stop-color:#A2A5A7"/>
		<stop  offset="0.1755" style="stop-color:#B0B3B4"/>
		<stop  offset="0.212" style="stop-color:#C4C7C8"/>
		<stop  offset="0.2295" style="stop-color:#D1D3D4"/>
		<stop  offset="0.2637" style="stop-color:#C8C9CA"/>
		<stop  offset="0.3213" style="stop-color:#AEAFB0"/>
		<stop  offset="0.3948" style="stop-color:#858686"/>
		<stop  offset="0.4208" style="stop-color:#757575"/>
		<stop  offset="0.5069" style="stop-color:#7F7F7F"/>
		<stop  offset="0.5464" style="stop-color:#858585"/>
		<stop  offset="0.7541" style="stop-color:#EDEDED"/>
		<stop  offset="0.7569" style="stop-color:#E2E2E2"/>
		<stop  offset="0.7662" style="stop-color:#C2C2C2"/>
		<stop  offset="0.7767" style="stop-color:#A7A7A7"/>
		<stop  offset="0.7886" style="stop-color:#919191"/>
		<stop  offset="0.8024" style="stop-color:#808080"/>
		<stop  offset="0.8194" style="stop-color:#747474"/>
		<stop  offset="0.8432" style="stop-color:#6D6D6D"/>
		<stop  offset="0.9071" style="stop-color:#6B6B6B"/>
		<stop  offset="0.9198" style="stop-color:#737374"/>
		<stop  offset="0.941" style="stop-color:#78787B"/>
		<stop  offset="1" style="stop-color:#7A7A7D"/>
	</linearGradient>
	<path class="st3" d="M543.8,32.3h-338c-8.8,0-15.9,6.3-15.9,14v29.9c0,7.7,7.1,13.9,15.9,13.9h120.5l0.2,0c0,0,0,0,0,0
		c0.1,0,0.2,0,0.4,0c1.6,0,6.6,0.3,11.2,3.9c7.9,6.3,20.4,11.2,35.7,11.2h2c15.3,0,27.7-4.9,35.7-11.2c4.6-3.6,9.5-3.9,11.2-3.9
		c0.2,0,0.3,0,0.4,0c0,0,0.1,0,0.1,0l0.2,0h120.5c8.8,0,15.9-6.3,15.9-13.9V46.3C559.7,38.6,552.6,32.3,543.8,32.3z M552.4,76.1
		c0,4.1-3.9,7.5-8.6,7.5H423.6c-0.2,0-0.5,0-0.9,0c-2.7,0-9.6,0.5-16.1,5.6c-6.6,5.2-17.3,9.5-30.8,9.5h-2
		c-13.5,0-24.2-4.4-30.8-9.5c-6.5-5.1-13.4-5.6-16.1-5.6c-0.4,0-0.7,0-0.9,0H205.8c-4.7,0-8.6-3.4-8.6-7.5V46.3
		c0-4.1,3.9-7.5,8.6-7.5h338c4.7,0,8.6,3.4,8.6,7.5L552.4,76.1z"/>
	<linearGradient id="SVGID_4_" gradientUnits="userSpaceOnUse" x1="226.1033" y1="90.6667" x2="183.427" y2="20.8572">
		<stop  offset="0" style="stop-color:#979A9C"/>
		<stop  offset="8.369531e-02" style="stop-color:#9A9C9E"/>
		<stop  offset="0.134" style="stop-color:#A2A5A7"/>
		<stop  offset="0.1755" style="stop-color:#B0B3B4"/>
		<stop  offset="0.212" style="stop-color:#C4C7C8"/>
		<stop  offset="0.2295" style="stop-color:#D1D3D4"/>
		<stop  offset="0.2637" style="stop-color:#C8C9CA"/>
		<stop  offset="0.3213" style="stop-color:#AEAFB0"/>
		<stop  offset="0.3948" style="stop-color:#858686"/>
		<stop  offset="0.4208" style="stop-color:#757575"/>
		<stop  offset="0.5069" style="stop-color:#7F7F7F"/>
		<stop  offset="0.5464" style="stop-color:#858585"/>
		<stop  offset="1" style="stop-color:#EDEDED"/>
	</linearGradient>
	<path class="st4" d="M207.4,33.4h12.5v-1.1h-14.1c-8.8,0-15.9,6.3-15.9,14v29.9c0,4.7,2.7,8.9,6.9,11.4c-3.3-2.6-5.3-6.2-5.3-10.4
		V47.4C191.4,39.7,198.6,33.4,207.4,33.4z"/>
	<linearGradient id="SVGID_5_" gradientUnits="userSpaceOnUse" x1="204.0711" y1="148.2245" x2="204.0711" y2="76.0579">
		<stop  offset="0" style="stop-color:#4D4F50"/>
		<stop  offset="8.416489e-02" style="stop-color:#505152"/>
		<stop  offset="0.1348" style="stop-color:#585A5B"/>
		<stop  offset="0.1765" style="stop-color:#666869"/>
		<stop  offset="0.2132" style="stop-color:#7A7C7D"/>
		<stop  offset="0.2295" style="stop-color:#868788"/>
		<stop  offset="0.2637" style="stop-color:#7C7D7E"/>
		<stop  offset="0.3213" style="stop-color:#636364"/>
		<stop  offset="0.3948" style="stop-color:#393A3A"/>
		<stop  offset="0.4208" style="stop-color:#292929"/>
		<stop  offset="0.5069" style="stop-color:#333333"/>
		<stop  offset="0.5464" style="stop-color:#393939"/>
		<stop  offset="0.7541" style="stop-color:#A1A1A1"/>
		<stop  offset="0.7569" style="stop-color:#969696"/>
		<stop  offset="0.7662" style="stop-color:#767676"/>
		<stop  offset="0.7767" style="stop-color:#5B5B5B"/>
		<stop  offset="0.7886" style="stop-color:#454545"/>
		<stop  offset="0.8024" style="stop-color:#343434"/>
		<stop  offset="0.8194" style="stop-color:#282828"/>
		<stop  offset="0.8432" style="stop-color:#212121"/>
		<stop  offset="0.9071" style="stop-color:#1F1F1F"/>
		<stop  offset="0.9198" style="stop-color:#272728"/>
		<stop  offset="0.941" style="stop-color:#2D2D2F"/>
		<stop  offset="1" style="stop-color:#2F2F31"/>
	</linearGradient>
	<path class="st5" d="M212.3,37.6h-8c-4.7,0-8.6,3.4-8.6,7.5V75c0,2.6,1.5,4.9,3.8,6.2c-1.4-1.3-2.3-3.1-2.3-5.1V46.3
		c0-4.1,3.9-7.5,8.6-7.5h6.6C212.4,38.4,212.3,38,212.3,37.6z"/>
	
		<linearGradient id="SVGID_6_" gradientUnits="userSpaceOnUse" x1="2510.9431" y1="90.6663" x2="2468.2668" y2="20.8569" gradientTransform="matrix(-1 0 0 1 3034.4688 0)">
		<stop  offset="0" style="stop-color:#979A9C"/>
		<stop  offset="8.369531e-02" style="stop-color:#9A9C9E"/>
		<stop  offset="0.134" style="stop-color:#A2A5A7"/>
		<stop  offset="0.1755" style="stop-color:#B0B3B4"/>
		<stop  offset="0.212" style="stop-color:#C4C7C8"/>
		<stop  offset="0.2295" style="stop-color:#D1D3D4"/>
		<stop  offset="0.2637" style="stop-color:#C8C9CA"/>
		<stop  offset="0.3213" style="stop-color:#AEAFB0"/>
		<stop  offset="0.3948" style="stop-color:#858686"/>
		<stop  offset="0.4208" style="stop-color:#757575"/>
		<stop  offset="0.5069" style="stop-color:#7F7F7F"/>
		<stop  offset="0.5464" style="stop-color:#858585"/>
		<stop  offset="1" style="stop-color:#EDEDED"/>
	</linearGradient>
	<path class="st6" d="M542.3,33.4h-12.5v-1.1h14.1c8.8,0,15.9,6.3,15.9,14v29.9c0,4.7-2.7,8.9-6.9,11.4c3.3-2.6,5.3-6.2,5.3-10.4
		V47.4C558.2,39.7,551.1,33.4,542.3,33.4z"/>
	
		<linearGradient id="SVGID_7_" gradientUnits="userSpaceOnUse" x1="2488.9114" y1="148.2245" x2="2488.9114" y2="76.0579" gradientTransform="matrix(-1 0 0 1 3034.4688 0)">
		<stop  offset="0" style="stop-color:#4D4F50"/>
		<stop  offset="8.416489e-02" style="stop-color:#505152"/>
		<stop  offset="0.1348" style="stop-color:#585A5B"/>
		<stop  offset="0.1765" style="stop-color:#666869"/>
		<stop  offset="0.2132" style="stop-color:#7A7C7D"/>
		<stop  offset="0.2295" style="stop-color:#868788"/>
		<stop  offset="0.2637" style="stop-color:#7C7D7E"/>
		<stop  offset="0.3213" style="stop-color:#636364"/>
		<stop  offset="0.3948" style="stop-color:#393A3A"/>
		<stop  offset="0.4208" style="stop-color:#292929"/>
		<stop  offset="0.5069" style="stop-color:#333333"/>
		<stop  offset="0.5464" style="stop-color:#393939"/>
		<stop  offset="0.7541" style="stop-color:#A1A1A1"/>
		<stop  offset="0.7569" style="stop-color:#969696"/>
		<stop  offset="0.7662" style="stop-color:#767676"/>
		<stop  offset="0.7767" style="stop-color:#5B5B5B"/>
		<stop  offset="0.7886" style="stop-color:#454545"/>
		<stop  offset="0.8024" style="stop-color:#343434"/>
		<stop  offset="0.8194" style="stop-color:#282828"/>
		<stop  offset="0.8432" style="stop-color:#212121"/>
		<stop  offset="0.9071" style="stop-color:#1F1F1F"/>
		<stop  offset="0.9198" style="stop-color:#272728"/>
		<stop  offset="0.941" style="stop-color:#2D2D2F"/>
		<stop  offset="1" style="stop-color:#2F2F31"/>
	</linearGradient>
	<path class="st7" d="M537.3,37.6h8c4.7,0,8.6,3.4,8.6,7.5V75c0,2.6-1.5,4.9-3.8,6.2c1.4-1.3,2.3-3.1,2.3-5.1V46.3
		c0-4.1-3.9-7.5-8.6-7.5h-6.6C537.3,38.4,537.3,38,537.3,37.6z"/>
	<linearGradient id="SVGID_8_" gradientUnits="userSpaceOnUse" x1="374.814" y1="130.1615" x2="374.814" y2="-15.7841">
		<stop  offset="0" style="stop-color:#868788"/>
		<stop  offset="3.030350e-02" style="stop-color:#7C7D7E"/>
		<stop  offset="8.130789e-02" style="stop-color:#636364"/>
		<stop  offset="0.1464" style="stop-color:#393A3A"/>
		<stop  offset="0.1694" style="stop-color:#292929"/>
		<stop  offset="0.2518" style="stop-color:#333333"/>
		<stop  offset="0.2896" style="stop-color:#393939"/>
		<stop  offset="0.4754" style="stop-color:#A1A1A1"/>
		<stop  offset="0.4799" style="stop-color:#969696"/>
		<stop  offset="0.4949" style="stop-color:#767676"/>
		<stop  offset="0.5118" style="stop-color:#5B5B5B"/>
		<stop  offset="0.5309" style="stop-color:#454545"/>
		<stop  offset="0.5531" style="stop-color:#343434"/>
		<stop  offset="0.5804" style="stop-color:#282828"/>
		<stop  offset="0.6185" style="stop-color:#212121"/>
		<stop  offset="0.7213" style="stop-color:#1F1F1F"/>
		<stop  offset="0.7595" style="stop-color:#272728"/>
		<stop  offset="0.8231" style="stop-color:#2D2D2F"/>
		<stop  offset="1" style="stop-color:#2F2F31"/>
	</linearGradient>
	<path class="st8" d="M543.8,87.9H423.3l-0.2,0c0,0,0,0-0.1,0c-0.1,0-0.2,0-0.4,0c-1.6,0-6.6,0.3-11.2,3.9
		c-7.9,6.3-20.4,11.2-35.7,11.2h-2c-15.3,0-27.7-4.9-35.7-11.2c-4.6-3.6-9.5-3.9-11.2-3.9c-0.2,0-0.4,0-0.4,0c0,0,0,0,0,0l-0.2,0
		H205.8c-8.8,0-15.9-6.3-15.9-13.9v2.2c0,7.7,7.1,13.9,15.9,13.9h120.5l0.2,0c0,0,0,0,0,0c0.1,0,0.2,0,0.4,0c1.6,0,6.6,0.3,11.2,3.9
		c7.9,6.3,20.4,11.2,35.7,11.2h2c15.3,0,27.7-4.9,35.7-11.2c4.6-3.6,9.5-3.9,11.2-3.9c0.2,0,0.3,0,0.4,0c0,0,0.1,0,0.1,0l0.2,0
		h120.5c8.8,0,15.9-6.3,15.9-13.9v-2.2C559.7,81.6,552.6,87.8,543.8,87.9z"/>
	<linearGradient id="SVGID_9_" gradientUnits="userSpaceOnUse" x1="374.8155" y1="-5.8212" x2="374.8155" y2="103.5841">
		<stop  offset="0" style="stop-color:#979A9C"/>
		<stop  offset="8.369531e-02" style="stop-color:#9A9C9E"/>
		<stop  offset="0.134" style="stop-color:#A2A5A7"/>
		<stop  offset="0.1755" style="stop-color:#B0B3B4"/>
		<stop  offset="0.212" style="stop-color:#C4C7C8"/>
		<stop  offset="0.2295" style="stop-color:#D1D3D4"/>
		<stop  offset="0.2637" style="stop-color:#C8C9CA"/>
		<stop  offset="0.3213" style="stop-color:#AEAFB0"/>
		<stop  offset="0.3948" style="stop-color:#858686"/>
		<stop  offset="0.4208" style="stop-color:#757575"/>
		<stop  offset="0.5069" style="stop-color:#7F7F7F"/>
		<stop  offset="0.5464" style="stop-color:#858585"/>
		<stop  offset="1" style="stop-color:#EDEDED"/>
	</linearGradient>
	<path class="st9" d="M543.8,83.7H423.6c-0.2,0-0.5,0-0.9,0c-2.7,0-9.6,0.5-16.1,5.6c-6.6,5.2-17.3,9.5-30.8,9.5h-2
		c-13.5,0-24.2-4.4-30.8-9.5c-6.5-5.1-13.4-5.6-16.1-5.6c-0.4,0-0.7,0-0.9,0H205.8c-4.7,0-8.6-3.4-8.6-7.5v2.1
		c0,4.1,3.9,7.5,8.6,7.5H326c0.2,0,0.5,0,0.9,0c2.6,0,9.6,0.5,16.1,5.6c6.6,5.2,17.3,9.5,30.8,9.5h2c13.5,0,24.2-4.4,30.8-9.5
		c6.4-5.1,13.4-5.6,16.1-5.6c0.4,0,0.7,0,0.9,0h120.2c4.7,0,8.6-3.4,8.6-7.5l0-29.9c0,0,0,0,0,0l0,27.7
		C552.4,80.3,548.5,83.7,543.8,83.7z"/>
	<linearGradient id="SVGID_10_" gradientUnits="userSpaceOnUse" x1="374.6429" y1="62.3071" x2="374.6429" y2="14.8263">
		<stop  offset="0" style="stop-color:#979A9C"/>
		<stop  offset="3.786215e-02" style="stop-color:#9A9C9E"/>
		<stop  offset="6.062584e-02" style="stop-color:#A2A5A7"/>
		<stop  offset="7.940219e-02" style="stop-color:#B0B3B4"/>
		<stop  offset="9.590770e-02" style="stop-color:#C4C7C8"/>
		<stop  offset="0.1038" style="stop-color:#D1D3D4"/>
		<stop  offset="0.1145" style="stop-color:#CCC9CA"/>
		<stop  offset="0.1326" style="stop-color:#C0AFB0"/>
		<stop  offset="0.1558" style="stop-color:#AC8585"/>
		<stop  offset="0.1829" style="stop-color:#914A4B"/>
		<stop  offset="0.2077" style="stop-color:#750F0F"/>
		<stop  offset="0.2332" style="stop-color:#771919"/>
		<stop  offset="0.2763" style="stop-color:#7D3333"/>
		<stop  offset="0.3224" style="stop-color:#855656"/>
		<stop  offset="0.4262" style="stop-color:#EDD3D3"/>
		<stop  offset="0.4278" style="stop-color:#E2CACA"/>
		<stop  offset="0.4331" style="stop-color:#C2B1B1"/>
		<stop  offset="0.4392" style="stop-color:#A79B9B"/>
		<stop  offset="0.4459" style="stop-color:#918989"/>
		<stop  offset="0.4538" style="stop-color:#807C7C"/>
		<stop  offset="0.4636" style="stop-color:#747272"/>
		<stop  offset="0.4771" style="stop-color:#6D6D6D"/>
		<stop  offset="0.5137" style="stop-color:#6B6B6B"/>
		<stop  offset="0.5229" style="stop-color:#898989"/>
		<stop  offset="0.5349" style="stop-color:#A8A8A8"/>
		<stop  offset="0.5485" style="stop-color:#C4C4C4"/>
		<stop  offset="0.5638" style="stop-color:#DADADA"/>
		<stop  offset="0.5817" style="stop-color:#EBEBEB"/>
		<stop  offset="0.6039" style="stop-color:#F6F6F6"/>
		<stop  offset="0.635" style="stop-color:#FDFDFD"/>
		<stop  offset="0.7213" style="stop-color:#FFFFFF"/>
		<stop  offset="0.747" style="stop-color:#FCFCFC"/>
		<stop  offset="0.7666" style="stop-color:#F2F2F3"/>
		<stop  offset="0.7841" style="stop-color:#E2E2E3"/>
		<stop  offset="0.8004" style="stop-color:#CBCBCC"/>
		<stop  offset="0.8159" style="stop-color:#ADADAF"/>
		<stop  offset="0.8306" style="stop-color:#89898C"/>
		<stop  offset="0.8361" style="stop-color:#7A7A7D"/>
	</linearGradient>
	<rect x="203.7" y="22" class="st10" width="341.8" height="31.6"/>
</g>
<path class="st11" d="M498,182.6h78.4c7.6,0,13.8,8.9,13.8,19.9v0c0,11-6.2,19.9-13.8,19.9H498c-7.6,0-13.8-8.9-13.8-19.9v0
	C484.2,191.5,490.4,182.6,498,182.6z"/>
<path class="st0" d="M545.4,190.7h16.9c4.5,0,8.2,5.3,8.2,11.8v0c0,6.5-3.7,11.8-8.2,11.8h-16.9c-4.5,0-8.2-5.3-8.2-11.8v0
	C537.2,196,540.9,190.7,545.4,190.7z"/>
<path class="st11" d="M490.5,587h78.4c7.6,0,13.8,9.3,13.8,20.8l0,0c0,11.5-6.2,20.8-13.8,20.8h-78.4c-7.6,0-13.8-9.3-13.8-20.8l0,0
	C476.7,596.3,482.9,587,490.5,587z"/>
<path class="st0" d="M537.9,595.5h16.9c4.5,0,8.2,5.5,8.2,12.3v0c0,6.8-3.7,12.3-8.2,12.3h-16.9c-4.5,0-8.2-5.5-8.2-12.3v0
	C529.7,601,533.4,595.5,537.9,595.5z"/>
<path class="st0" d="M158.2,124h45.6c4.5,0,8.2,5.3,8.2,11.8v0c0,6.5-3.7,11.8-8.2,11.8h-45.6c-4.5,0-8.2-5.3-8.2-11.8v0
	C150,129.3,153.7,124,158.2,124z"/>
<path class="st0" d="M158.2,192.3h155.7c4.5,0,8.2,5.3,8.2,11.8v0c0,6.5-3.7,11.8-8.2,11.8H158.2c-4.5,0-8.2-5.3-8.2-11.8v0
	C150,197.6,153.7,192.3,158.2,192.3z"/>
<path class="st0" d="M158.2,253.7h155.7c4.5,0,8.2,5.6,8.2,12.6v0c0,6.9-3.7,12.6-8.2,12.6H158.2c-4.5,0-8.2-5.6-8.2-12.6v0
	C150,259.3,153.7,253.7,158.2,253.7z"/>
<g class="st12">
	<path class="st0" d="M158.2,327.5h45.6c4.5,0,8.2,5.2,8.2,11.6v0c0,6.4-3.7,11.6-8.2,11.6h-45.6c-4.5,0-8.2-5.2-8.2-11.6v0
		C150,332.6,153.7,327.5,158.2,327.5z"/>
	<path class="st0" d="M158.2,387.6h112.1c4.5,0,8.2,6.3,8.2,14.1v0c0,7.8-3.7,14.1-8.2,14.1H158.2c-4.5,0-8.2-6.3-8.2-14.1v0
		C150,393.9,153.7,387.6,158.2,387.6z"/>
	<path class="st0" d="M154.2,456.6h155.7c4.5,0,8.2,5.8,8.2,13v0c0,7.2-3.7,13-8.2,13H154.2c-4.5,0-8.2-5.8-8.2-13v0
		C146,462.4,149.7,456.6,154.2,456.6z"/>
</g>
<path class="st0" d="M158.2,536.6h45.6c4.5,0,8.2,5.3,8.2,11.9v0c0,6.6-3.7,11.9-8.2,11.9h-45.6c-4.5,0-8.2-5.3-8.2-11.9v0
	C150,541.9,153.7,536.6,158.2,536.6z"/>
<path class="st0" d="M154.2,595.5h155.7c4.5,0,8.2,5.5,8.2,12.3v0c0,6.8-3.7,12.3-8.2,12.3H154.2c-4.5,0-8.2-5.5-8.2-12.3v0
	C146,601,149.7,595.5,154.2,595.5z"/>
<path class="st0" d="M158.2,655.3h90.6c4.5,0,8.2,5.3,8.2,11.9v0c0,6.6-3.7,11.9-8.2,11.9h-90.6c-4.5,0-8.2-5.3-8.2-11.9v0
	C150,660.6,153.7,655.3,158.2,655.3z"/>
<line class="st13" x1="123.8" y1="299.1" x2="625.4" y2="299.1"/>
<line class="st13" x1="123.8" y1="509.2" x2="625.4" y2="509.2"/>
<path class="st11" d="M505.5,384.2h78.4c7.6,0,13.8,8.9,13.8,19.9v0c0,11-6.2,19.9-13.8,19.9h-78.4c-7.6,0-13.8-8.9-13.8-19.9v0
	C491.7,393.1,497.9,384.2,505.5,384.2z"/>
<path class="st0" d="M529,415.9h-16.9c-4.5,0-8.2-5.3-8.2-11.8v0c0-6.5,3.7-11.8,8.2-11.8H529c4.5,0,8.2,5.3,8.2,11.8v0
	C537.2,410.6,533.6,415.9,529,415.9z"/>
</svg>
