<?xml version="1.0" encoding="utf-8"?>
<!-- Generator: Adobe Illustrator 21.0.0, SVG Export Plug-In . SVG Version: 6.00 Build 0)  -->
<svg version="1.1" xmlns="http://www.w3.org/2000/svg" xmlns:xlink="http://www.w3.org/1999/xlink" x="0px" y="0px"
	 viewBox="0 0 58 600" style="enable-background:new 0 0 58 600;" xml:space="preserve">
<style type="text/css">
	.st0{fill:#202020;stroke:url(#SVGID_1_);stroke-width:2;stroke-miterlimit:10;}
	.st1{display:none;}
	.st2{display:inline;}
	.st3{fill:none;}
	.st4{fill:#202020;}
	.st5{fill:url(#SVGID_2_);}
	.st6{fill:url(#SVGID_3_);}
	.st7{fill:url(#SVGID_4_);}
	.st8{fill:url(#SVGID_5_);}
	.st9{fill:url(#SVGID_6_);}
	.st10{fill:url(#SVGID_7_);}
	.st11{fill:url(#SVGID_8_);}
	.st12{fill:url(#SVGID_9_);}
	.st13{fill:url(#SVGID_10_);}
	.st14{fill:url(#SVGID_11_);}
	.st15{fill:url(#SVGID_12_);}
	.st16{fill:url(#SVGID_13_);}
	.st17{fill:url(#SVGID_14_);}
	.st18{fill:url(#SVGID_15_);}
	.st19{fill:url(#SVGID_16_);}
	.st20{fill:url(#SVGID_17_);}
	.st21{fill:url(#SVGID_18_);}
	.st22{display:inline;fill:#202020;}
</style>
<g id="Layer_3">
	<linearGradient id="SVGID_1_" gradientUnits="userSpaceOnUse" x1="24.9686" y1="610.6393" x2="24.9686" y2="-6.2565">
		<stop  offset="0" style="stop-color:#FFFFFF;stop-opacity:0"/>
		<stop  offset="0.1206" style="stop-color:#EDC5D2;stop-opacity:0.1206"/>
		<stop  offset="0.2444" style="stop-color:#DD92A9;stop-opacity:0.2444"/>
		<stop  offset="0.3705" style="stop-color:#CF6587;stop-opacity:0.3705"/>
		<stop  offset="0.4964" style="stop-color:#C3416A;stop-opacity:0.4964"/>
		<stop  offset="0.6223" style="stop-color:#BA2554;stop-opacity:0.6223"/>
		<stop  offset="0.7482" style="stop-color:#B41145;stop-opacity:0.7482"/>
		<stop  offset="0.8739" style="stop-color:#B0053B;stop-opacity:0.8739"/>
		<stop  offset="1" style="stop-color:#AF0138"/>
	</linearGradient>
	<path class="st0" d="M33.5-5C40.4,18.4,51,62.6,55,114.5c1.3,17.5,3.5,49.1-1.3,90.5c-0.1,0.5-0.6,4-1,8
		c-4.9,47.1-15.6,73.3-27.5,107.5c-4.4,12.8-11.7,45.3-16.3,86.4c-2.3,20.9-3.2,37.2-3.4,72C5.5,512.1,5.6,556.6,7,609.5l-13.8-1.8
		L-5-5.3L33.5-5z"/>
</g>
<g id="Layer_1" class="st1">
</g>
<g id="Layer_2" class="st1">
	<g class="st2">
		<path class="st3" d="M53.9,110.9c0.4,4.3,0.7,9.1,1,14.3C54.6,119.9,54.2,115.1,53.9,110.9z"/>
		<path class="st3" d="M53.7,109.3c0,0.3,0.1,0.6,0.1,1C53.8,109.9,53.8,109.6,53.7,109.3z"/>
		<path class="st3" d="M50.7,81c0,0.1,0,0.2,0,0.3C50.7,81.2,50.7,81.1,50.7,81z"/>
		<path class="st3" d="M54.9,125.3c0.1,1,0.1,2,0.2,3C55,127.3,55,126.3,54.9,125.3z"/>
		<path class="st3" d="M55.1,129.2c0,0.8,0.1,1.5,0.1,2.3C55.2,130.7,55.2,129.9,55.1,129.2z"/>
		<path class="st3" d="M51.5,87.4c0.1,0.5,0.1,1,0.2,1.4C51.6,88.3,51.6,87.8,51.5,87.4z"/>
		<path class="st3" d="M57.7,145.4V0.7H35.7C45.3,33.6,51.8,67.2,55,100.9C55.9,110.4,57.3,125.7,57.7,145.4z"/>
		<path class="st3" d="M55.3,133.3c0,0.5,0,0.9,0.1,1.4C55.3,134.2,55.3,133.8,55.3,133.3z"/>
		<path class="st3" d="M52.3,94.2c0.1,0.8,0.2,1.5,0.2,2.3C52.5,95.7,52.4,95,52.3,94.2z"/>
		<path class="st3" d="M52,227.2c-5.4,33.8-12.7,55.1-19.8,75.6c-8.5,24.8-16.6,48.1-21.2,91.3c-1.7,16-2.2,30.7-3,62.9
			c-1.3,48.4-1.1,96.6,0.5,143.6h49.2V162C57.3,181.1,55.8,203.2,52,227.2z"/>
		<path class="st3" d="M6,457c-0.2,6.6-0.3,13.2-0.4,19.5C5.7,470.1,5.8,463.6,6,457z"/>
		<path class="st3" d="M6.8,429.4c-0.2,5.5-0.4,11.7-0.6,18.6C6.4,441,6.6,434.9,6.8,429.4z"/>
		<path class="st3" d="M6.2,448.5c0,0.4,0,0.8,0,1.1C6.2,449.2,6.2,448.8,6.2,448.5z"/>
		<path class="st3" d="M5.5,477.2c-0.1,6.6-0.2,13.1-0.3,19.4C5.3,490.1,5.4,483.6,5.5,477.2z"/>
		<path class="st3" d="M6.5,600.7L6.5,600.7c-0.1-2-0.1-3.9-0.2-5.9C6.4,596.8,6.4,598.7,6.5,600.7z"/>
		<path class="st3" d="M6.3,594.7c-1-32.2-1.4-65-1-98C4.9,535.2,5.4,568.2,6.3,594.7z"/>
		<path class="st3" d="M55.5,137.6c0,0.2,0,0.3,0,0.5C55.5,138,55.5,137.8,55.5,137.6z"/>
		<path class="st3" d="M6.9,427.6c0,0.3,0,0.6,0,0.9C6.8,428.2,6.9,427.9,6.9,427.6z"/>
		<path class="st4" d="M6.3,594.7c-0.9-26.5-1.4-59.6-1-98c0-0.1,0-0.1,0-0.2c0.1-6.3,0.2-12.8,0.3-19.4c0-0.2,0-0.4,0-0.6
			c0.1-6.4,0.3-12.9,0.4-19.5c0,0,0-0.1,0-0.1c0.1-2.6,0.1-5,0.2-7.4c0-0.4,0-0.8,0-1.1c0-0.1,0-0.3,0-0.4c0.2-7,0.4-13.1,0.6-18.6
			c0-0.3,0-0.6,0-0.9c0-0.3,0-0.6,0-0.9C7.4,413.7,8,404.1,9,393.9c4.6-43.4,12.7-66.9,21.3-91.8c7.1-20.5,14.4-41.7,19.7-75.3
			c5.5-34.6,6.2-65.3,5.5-88.7c0-0.2,0-0.3,0-0.5c0-1-0.1-2-0.1-2.9c0-0.5,0-0.9-0.1-1.4c0-0.6-0.1-1.2-0.1-1.9
			c0-0.8-0.1-1.5-0.1-2.3c0-0.3,0-0.6,0-0.9c-0.1-1-0.1-2-0.2-3c0,0,0-0.1,0-0.1c-0.3-5.3-0.7-10-1-14.3c0-0.2,0-0.4-0.1-0.7
			c0-0.3-0.1-0.6-0.1-1c-0.3-3.1-0.5-5.8-0.7-8.2c-0.1-1.5-0.3-3.1-0.5-4.6c-0.1-0.8-0.2-1.5-0.2-2.3c-0.2-1.8-0.4-3.6-0.6-5.4
			c-0.1-0.5-0.1-1-0.2-1.4c-0.2-2-0.5-4.1-0.8-6.1c0-0.1,0-0.2,0-0.3c-3.6-27-9.3-53.9-17.1-80.3h-34v600h6.8
			C6.4,598.7,6.4,596.8,6.3,594.7C6.3,594.8,6.3,594.8,6.3,594.7z"/>
		
			<linearGradient id="SVGID_2_" gradientUnits="userSpaceOnUse" x1="31.3971" y1="-14.041" x2="31.3971" y2="605.2915" gradientTransform="matrix(1 0 0 -1 0 600)">
			<stop  offset="0.1838" style="stop-color:#FFFFFF;stop-opacity:0"/>
			<stop  offset="0.2773" style="stop-color:#EEC9D5;stop-opacity:0.1145"/>
			<stop  offset="0.3805" style="stop-color:#DD94AB;stop-opacity:0.241"/>
			<stop  offset="0.4853" style="stop-color:#CF6788;stop-opacity:0.3695"/>
			<stop  offset="0.5898" style="stop-color:#C4426B;stop-opacity:0.4974"/>
			<stop  offset="0.6938" style="stop-color:#BB2655;stop-opacity:0.6248"/>
			<stop  offset="0.797" style="stop-color:#B41145;stop-opacity:0.7513"/>
			<stop  offset="0.8994" style="stop-color:#B0053B;stop-opacity:0.8768"/>
			<stop  offset="1" style="stop-color:#AF0138"/>
		</linearGradient>
		<path class="st5" d="M8,457c0.8-32.2,1.3-46.9,3-62.9c4.6-43.2,12.7-66.6,21.2-91.3c7.1-20.6,14.4-41.9,19.8-75.6
			c3.8-23.9,5.4-46,5.7-65.1v-16.7c-0.3-19.6-1.8-35-2.7-44.5C51.8,67.2,45.3,33.6,35.7,0.7h-2C40,22.2,46.5,49.3,50.7,81
			c0,0.1,0,0.2,0,0.3c0.3,2,0.5,4.1,0.8,6.1c0.1,0.5,0.1,1,0.2,1.4c0.2,1.8,0.4,3.6,0.6,5.4c0.1,0.8,0.2,1.5,0.2,2.3
			c0.2,1.5,0.3,3,0.5,4.5c0.2,2.5,0.5,5.2,0.7,8.3c0,0.3,0.1,0.6,0.1,1c0,0.2,0,0.4,0.1,0.7c0.4,4.2,0.7,9,1,14.3c0,0,0,0.1,0,0.1
			c0.1,1,0.1,2,0.2,3c0,0.3,0,0.6,0,0.9c0,0.8,0.1,1.5,0.1,2.3c0,0.6,0.1,1.2,0.1,1.9c0,0.5,0,0.9,0.1,1.4c0,1,0.1,1.9,0.1,2.9
			c0,0.2,0,0.3,0,0.5c0.8,23.7,0.1,54.2-5.5,88.9c-11.7,73.5-32.5,87.1-41,167c-1.1,10.2-1.6,20.1-2.1,33.6c0,0.3,0,0.6,0,0.9
			c0,0.3,0,0.6,0,0.9C6.6,434.9,6.4,441,6.2,448c0,0.1,0,0.3,0,0.4c0,0.4,0,0.8,0,1.1C6.1,452,6.1,454.4,6,457c0,0,0,0,0,0
			c-0.2,6.5-0.3,13-0.4,19.5c0,0.2,0,0.4,0,0.6c-0.1,6.5-0.2,12.9-0.3,19.4c0,0.1,0,0.1,0,0.2c-0.3,33,0,65.8,1,98c0,0,0,0,0,0
			c0.1,2,0.1,3.9,0.2,5.9h2C6.9,553.6,6.7,505.4,8,457z"/>
		<path class="st4" d="M6.3,594.7C6.3,594.8,6.3,594.8,6.3,594.7C6.3,594.8,6.3,594.8,6.3,594.7z"/>
		
			<linearGradient id="SVGID_3_" gradientUnits="userSpaceOnUse" x1="6.2961" y1="-14.041" x2="6.2961" y2="112.9121" gradientTransform="matrix(1 0 0 -1 0 600)">
			<stop  offset="0.1838" style="stop-color:#FFFFFF;stop-opacity:0"/>
			<stop  offset="0.2773" style="stop-color:#EEC9D5;stop-opacity:0.1145"/>
			<stop  offset="0.3805" style="stop-color:#DD94AB;stop-opacity:0.241"/>
			<stop  offset="0.4853" style="stop-color:#CF6788;stop-opacity:0.3695"/>
			<stop  offset="0.5898" style="stop-color:#C4426B;stop-opacity:0.4974"/>
			<stop  offset="0.6938" style="stop-color:#BB2655;stop-opacity:0.6248"/>
			<stop  offset="0.797" style="stop-color:#B41145;stop-opacity:0.7513"/>
			<stop  offset="0.8994" style="stop-color:#B0053B;stop-opacity:0.8768"/>
			<stop  offset="1" style="stop-color:#AF0138"/>
		</linearGradient>
		<path class="st6" d="M6.3,594.7C6.3,594.8,6.3,594.8,6.3,594.7C6.3,594.8,6.3,594.8,6.3,594.7z"/>
		<path class="st4" d="M6,457C6,457,6,457,6,457c0.1-2.6,0.1-5.1,0.2-7.5C6.1,451.9,6.1,454.4,6,457C6,457,6,457,6,457z"/>
		
			<linearGradient id="SVGID_4_" gradientUnits="userSpaceOnUse" x1="6.0967" y1="-14.041" x2="6.0967" y2="605.2915" gradientTransform="matrix(1 0 0 -1 0 600)">
			<stop  offset="0.1838" style="stop-color:#FFFFFF;stop-opacity:0"/>
			<stop  offset="0.2773" style="stop-color:#EEC9D5;stop-opacity:0.1145"/>
			<stop  offset="0.3805" style="stop-color:#DD94AB;stop-opacity:0.241"/>
			<stop  offset="0.4853" style="stop-color:#CF6788;stop-opacity:0.3695"/>
			<stop  offset="0.5898" style="stop-color:#C4426B;stop-opacity:0.4974"/>
			<stop  offset="0.6938" style="stop-color:#BB2655;stop-opacity:0.6248"/>
			<stop  offset="0.797" style="stop-color:#B41145;stop-opacity:0.7513"/>
			<stop  offset="0.8994" style="stop-color:#B0053B;stop-opacity:0.8768"/>
			<stop  offset="1" style="stop-color:#AF0138"/>
		</linearGradient>
		<path class="st7" d="M6,457C6,457,6,457,6,457c0.1-2.6,0.1-5.1,0.2-7.5C6.1,451.9,6.1,454.4,6,457C6,457,6,457,6,457z"/>
		<path class="st4" d="M53.7,109.3c-0.3-3-0.5-5.8-0.7-8.3c-0.1-1.5-0.3-3-0.5-4.5c0.2,1.5,0.3,3.1,0.5,4.6
			C53.2,103.5,53.5,106.2,53.7,109.3z"/>
		
			<linearGradient id="SVGID_5_" gradientUnits="userSpaceOnUse" x1="53.1441" y1="-14.041" x2="53.1441" y2="605.2915" gradientTransform="matrix(1 0 0 -1 0 600)">
			<stop  offset="0.1838" style="stop-color:#FFFFFF;stop-opacity:0"/>
			<stop  offset="0.2773" style="stop-color:#EEC9D5;stop-opacity:0.1145"/>
			<stop  offset="0.3805" style="stop-color:#DD94AB;stop-opacity:0.241"/>
			<stop  offset="0.4853" style="stop-color:#CF6788;stop-opacity:0.3695"/>
			<stop  offset="0.5898" style="stop-color:#C4426B;stop-opacity:0.4974"/>
			<stop  offset="0.6938" style="stop-color:#BB2655;stop-opacity:0.6248"/>
			<stop  offset="0.797" style="stop-color:#B41145;stop-opacity:0.7513"/>
			<stop  offset="0.8994" style="stop-color:#B0053B;stop-opacity:0.8768"/>
			<stop  offset="1" style="stop-color:#AF0138"/>
		</linearGradient>
		<path class="st8" d="M53.7,109.3c-0.3-3-0.5-5.8-0.7-8.3c-0.1-1.5-0.3-3-0.5-4.5c0.2,1.5,0.3,3.1,0.5,4.6
			C53.2,103.5,53.5,106.2,53.7,109.3z"/>
		<path class="st4" d="M50,226.8c-5.3,33.6-12.7,54.8-19.7,75.3C21.7,327,13.6,350.5,9,393.9c-1.1,10.2-1.6,19.8-2.1,33.7
			C7.4,414.1,7.9,404.2,9,394c8.5-79.9,29.3-93.5,41-167c5.5-34.6,6.3-65.2,5.5-88.9C56.2,161.6,55.5,192.3,50,226.8z"/>
		
			<linearGradient id="SVGID_6_" gradientUnits="userSpaceOnUse" x1="31.3033" y1="-14.041" x2="31.3033" y2="605.2915" gradientTransform="matrix(1 0 0 -1 0 600)">
			<stop  offset="0.1838" style="stop-color:#FFFFFF;stop-opacity:0"/>
			<stop  offset="0.2773" style="stop-color:#EEC9D5;stop-opacity:0.1145"/>
			<stop  offset="0.3805" style="stop-color:#DD94AB;stop-opacity:0.241"/>
			<stop  offset="0.4853" style="stop-color:#CF6788;stop-opacity:0.3695"/>
			<stop  offset="0.5898" style="stop-color:#C4426B;stop-opacity:0.4974"/>
			<stop  offset="0.6938" style="stop-color:#BB2655;stop-opacity:0.6248"/>
			<stop  offset="0.797" style="stop-color:#B41145;stop-opacity:0.7513"/>
			<stop  offset="0.8994" style="stop-color:#B0053B;stop-opacity:0.8768"/>
			<stop  offset="1" style="stop-color:#AF0138"/>
		</linearGradient>
		<path class="st9" d="M50,226.8c-5.3,33.6-12.7,54.8-19.7,75.3C21.7,327,13.6,350.5,9,393.9c-1.1,10.2-1.6,19.8-2.1,33.7
			C7.4,414.1,7.9,404.2,9,394c8.5-79.9,29.3-93.5,41-167c5.5-34.6,6.3-65.2,5.5-88.9C56.2,161.6,55.5,192.3,50,226.8z"/>
		<path class="st4" d="M51.7,88.8c0.2,1.8,0.4,3.6,0.6,5.4C52.1,92.4,51.9,90.6,51.7,88.8z"/>
		
			<linearGradient id="SVGID_7_" gradientUnits="userSpaceOnUse" x1="51.9977" y1="-14.041" x2="51.9977" y2="605.2915" gradientTransform="matrix(1 0 0 -1 0 600)">
			<stop  offset="0.1838" style="stop-color:#FFFFFF;stop-opacity:0"/>
			<stop  offset="0.2773" style="stop-color:#EEC9D5;stop-opacity:0.1145"/>
			<stop  offset="0.3805" style="stop-color:#DD94AB;stop-opacity:0.241"/>
			<stop  offset="0.4853" style="stop-color:#CF6788;stop-opacity:0.3695"/>
			<stop  offset="0.5898" style="stop-color:#C4426B;stop-opacity:0.4974"/>
			<stop  offset="0.6938" style="stop-color:#BB2655;stop-opacity:0.6248"/>
			<stop  offset="0.797" style="stop-color:#B41145;stop-opacity:0.7513"/>
			<stop  offset="0.8994" style="stop-color:#B0053B;stop-opacity:0.8768"/>
			<stop  offset="1" style="stop-color:#AF0138"/>
		</linearGradient>
		<path class="st10" d="M51.7,88.8c0.2,1.8,0.4,3.6,0.6,5.4C52.1,92.4,51.9,90.6,51.7,88.8z"/>
		<path class="st4" d="M53.8,110.2c0,0.2,0,0.4,0.1,0.7C53.9,110.7,53.8,110.4,53.8,110.2z"/>
		
			<linearGradient id="SVGID_8_" gradientUnits="userSpaceOnUse" x1="53.8579" y1="-14.041" x2="53.8579" y2="605.2915" gradientTransform="matrix(1 0 0 -1 0 600)">
			<stop  offset="0.1838" style="stop-color:#FFFFFF;stop-opacity:0"/>
			<stop  offset="0.2773" style="stop-color:#EEC9D5;stop-opacity:0.1145"/>
			<stop  offset="0.3805" style="stop-color:#DD94AB;stop-opacity:0.241"/>
			<stop  offset="0.4853" style="stop-color:#CF6788;stop-opacity:0.3695"/>
			<stop  offset="0.5898" style="stop-color:#C4426B;stop-opacity:0.4974"/>
			<stop  offset="0.6938" style="stop-color:#BB2655;stop-opacity:0.6248"/>
			<stop  offset="0.797" style="stop-color:#B41145;stop-opacity:0.7513"/>
			<stop  offset="0.8994" style="stop-color:#B0053B;stop-opacity:0.8768"/>
			<stop  offset="1" style="stop-color:#AF0138"/>
		</linearGradient>
		<path class="st11" d="M53.8,110.2c0,0.2,0,0.4,0.1,0.7C53.9,110.7,53.8,110.4,53.8,110.2z"/>
		<path class="st4" d="M55.1,128.3c0,0.3,0,0.6,0,0.9C55.1,128.9,55.1,128.6,55.1,128.3z"/>
		
			<linearGradient id="SVGID_9_" gradientUnits="userSpaceOnUse" x1="55.0964" y1="-14.041" x2="55.0964" y2="605.2915" gradientTransform="matrix(1 0 0 -1 0 600)">
			<stop  offset="0.1838" style="stop-color:#FFFFFF;stop-opacity:0"/>
			<stop  offset="0.2773" style="stop-color:#EEC9D5;stop-opacity:0.1145"/>
			<stop  offset="0.3805" style="stop-color:#DD94AB;stop-opacity:0.241"/>
			<stop  offset="0.4853" style="stop-color:#CF6788;stop-opacity:0.3695"/>
			<stop  offset="0.5898" style="stop-color:#C4426B;stop-opacity:0.4974"/>
			<stop  offset="0.6938" style="stop-color:#BB2655;stop-opacity:0.6248"/>
			<stop  offset="0.797" style="stop-color:#B41145;stop-opacity:0.7513"/>
			<stop  offset="0.8994" style="stop-color:#B0053B;stop-opacity:0.8768"/>
			<stop  offset="1" style="stop-color:#AF0138"/>
		</linearGradient>
		<path class="st12" d="M55.1,128.3c0,0.3,0,0.6,0,0.9C55.1,128.9,55.1,128.6,55.1,128.3z"/>
		<path class="st4" d="M5.3,496.5c0,0.1,0,0.1,0,0.2C5.3,496.7,5.3,496.6,5.3,496.5z"/>
		
			<linearGradient id="SVGID_10_" gradientUnits="userSpaceOnUse" x1="5.256" y1="-14.041" x2="5.256" y2="605.2915" gradientTransform="matrix(1 0 0 -1 0 600)">
			<stop  offset="0.1838" style="stop-color:#FFFFFF;stop-opacity:0"/>
			<stop  offset="0.2773" style="stop-color:#EEC9D5;stop-opacity:0.1145"/>
			<stop  offset="0.3805" style="stop-color:#DD94AB;stop-opacity:0.241"/>
			<stop  offset="0.4853" style="stop-color:#CF6788;stop-opacity:0.3695"/>
			<stop  offset="0.5898" style="stop-color:#C4426B;stop-opacity:0.4974"/>
			<stop  offset="0.6938" style="stop-color:#BB2655;stop-opacity:0.6248"/>
			<stop  offset="0.797" style="stop-color:#B41145;stop-opacity:0.7513"/>
			<stop  offset="0.8994" style="stop-color:#B0053B;stop-opacity:0.8768"/>
			<stop  offset="1" style="stop-color:#AF0138"/>
		</linearGradient>
		<path class="st13" d="M5.3,496.5c0,0.1,0,0.1,0,0.2C5.3,496.7,5.3,496.6,5.3,496.5z"/>
		<path class="st4" d="M33.7,0.7L33.7,0.7C41.4,27.1,47.1,54,50.7,81C46.5,49.3,40,22.2,33.7,0.7z"/>
		
			<linearGradient id="SVGID_11_" gradientUnits="userSpaceOnUse" x1="42.1761" y1="-14.041" x2="42.1761" y2="605.2915" gradientTransform="matrix(1 0 0 -1 0 600)">
			<stop  offset="0.1838" style="stop-color:#FFFFFF;stop-opacity:0"/>
			<stop  offset="0.2773" style="stop-color:#EEC9D5;stop-opacity:0.1145"/>
			<stop  offset="0.3805" style="stop-color:#DD94AB;stop-opacity:0.241"/>
			<stop  offset="0.4853" style="stop-color:#CF6788;stop-opacity:0.3695"/>
			<stop  offset="0.5898" style="stop-color:#C4426B;stop-opacity:0.4974"/>
			<stop  offset="0.6938" style="stop-color:#BB2655;stop-opacity:0.6248"/>
			<stop  offset="0.797" style="stop-color:#B41145;stop-opacity:0.7513"/>
			<stop  offset="0.8994" style="stop-color:#B0053B;stop-opacity:0.8768"/>
			<stop  offset="1" style="stop-color:#AF0138"/>
		</linearGradient>
		<path class="st14" d="M33.7,0.7L33.7,0.7C41.4,27.1,47.1,54,50.7,81C46.5,49.3,40,22.2,33.7,0.7z"/>
		<path class="st4" d="M50.7,81.3c0.3,2,0.5,4.1,0.8,6.1C51.3,85.3,51,83.3,50.7,81.3z"/>
		
			<linearGradient id="SVGID_12_" gradientUnits="userSpaceOnUse" x1="51.1342" y1="-14.041" x2="51.1342" y2="605.2915" gradientTransform="matrix(1 0 0 -1 0 600)">
			<stop  offset="0.1838" style="stop-color:#FFFFFF;stop-opacity:0"/>
			<stop  offset="0.2773" style="stop-color:#EEC9D5;stop-opacity:0.1145"/>
			<stop  offset="0.3805" style="stop-color:#DD94AB;stop-opacity:0.241"/>
			<stop  offset="0.4853" style="stop-color:#CF6788;stop-opacity:0.3695"/>
			<stop  offset="0.5898" style="stop-color:#C4426B;stop-opacity:0.4974"/>
			<stop  offset="0.6938" style="stop-color:#BB2655;stop-opacity:0.6248"/>
			<stop  offset="0.797" style="stop-color:#B41145;stop-opacity:0.7513"/>
			<stop  offset="0.8994" style="stop-color:#B0053B;stop-opacity:0.8768"/>
			<stop  offset="1" style="stop-color:#AF0138"/>
		</linearGradient>
		<path class="st15" d="M50.7,81.3c0.3,2,0.5,4.1,0.8,6.1C51.3,85.3,51,83.3,50.7,81.3z"/>
		<path class="st4" d="M54.9,125.2c0,0,0,0.1,0,0.1C54.9,125.2,54.9,125.2,54.9,125.2z"/>
		
			<linearGradient id="SVGID_13_" gradientUnits="userSpaceOnUse" x1="54.9071" y1="-14.041" x2="54.9071" y2="605.2915" gradientTransform="matrix(1 0 0 -1 0 600)">
			<stop  offset="0.1838" style="stop-color:#FFFFFF;stop-opacity:0"/>
			<stop  offset="0.2773" style="stop-color:#EEC9D5;stop-opacity:0.1145"/>
			<stop  offset="0.3805" style="stop-color:#DD94AB;stop-opacity:0.241"/>
			<stop  offset="0.4853" style="stop-color:#CF6788;stop-opacity:0.3695"/>
			<stop  offset="0.5898" style="stop-color:#C4426B;stop-opacity:0.4974"/>
			<stop  offset="0.6938" style="stop-color:#BB2655;stop-opacity:0.6248"/>
			<stop  offset="0.797" style="stop-color:#B41145;stop-opacity:0.7513"/>
			<stop  offset="0.8994" style="stop-color:#B0053B;stop-opacity:0.8768"/>
			<stop  offset="1" style="stop-color:#AF0138"/>
		</linearGradient>
		<path class="st16" d="M54.9,125.2c0,0,0,0.1,0,0.1C54.9,125.2,54.9,125.2,54.9,125.2z"/>
		<path class="st4" d="M5.6,476.6c0,0.2,0,0.4,0,0.6C5.5,477,5.5,476.8,5.6,476.6z"/>
		
			<linearGradient id="SVGID_14_" gradientUnits="userSpaceOnUse" x1="5.5453" y1="-14.041" x2="5.5453" y2="605.2915" gradientTransform="matrix(1 0 0 -1 0 600)">
			<stop  offset="0.1838" style="stop-color:#FFFFFF;stop-opacity:0"/>
			<stop  offset="0.2773" style="stop-color:#EEC9D5;stop-opacity:0.1145"/>
			<stop  offset="0.3805" style="stop-color:#DD94AB;stop-opacity:0.241"/>
			<stop  offset="0.4853" style="stop-color:#CF6788;stop-opacity:0.3695"/>
			<stop  offset="0.5898" style="stop-color:#C4426B;stop-opacity:0.4974"/>
			<stop  offset="0.6938" style="stop-color:#BB2655;stop-opacity:0.6248"/>
			<stop  offset="0.797" style="stop-color:#B41145;stop-opacity:0.7513"/>
			<stop  offset="0.8994" style="stop-color:#B0053B;stop-opacity:0.8768"/>
			<stop  offset="1" style="stop-color:#AF0138"/>
		</linearGradient>
		<path class="st17" d="M5.6,476.6c0,0.2,0,0.4,0,0.6C5.5,477,5.5,476.8,5.6,476.6z"/>
		<path class="st4" d="M55.2,131.5c0,0.6,0.1,1.2,0.1,1.9C55.3,132.7,55.3,132.1,55.2,131.5z"/>
		
			<linearGradient id="SVGID_15_" gradientUnits="userSpaceOnUse" x1="55.2689" y1="-14.041" x2="55.2689" y2="605.2915" gradientTransform="matrix(1 0 0 -1 0 600)">
			<stop  offset="0.1838" style="stop-color:#FFFFFF;stop-opacity:0"/>
			<stop  offset="0.2773" style="stop-color:#EEC9D5;stop-opacity:0.1145"/>
			<stop  offset="0.3805" style="stop-color:#DD94AB;stop-opacity:0.241"/>
			<stop  offset="0.4853" style="stop-color:#CF6788;stop-opacity:0.3695"/>
			<stop  offset="0.5898" style="stop-color:#C4426B;stop-opacity:0.4974"/>
			<stop  offset="0.6938" style="stop-color:#BB2655;stop-opacity:0.6248"/>
			<stop  offset="0.797" style="stop-color:#B41145;stop-opacity:0.7513"/>
			<stop  offset="0.8994" style="stop-color:#B0053B;stop-opacity:0.8768"/>
			<stop  offset="1" style="stop-color:#AF0138"/>
		</linearGradient>
		<path class="st18" d="M55.2,131.5c0,0.6,0.1,1.2,0.1,1.9C55.3,132.7,55.3,132.1,55.2,131.5z"/>
		<path class="st4" d="M6.2,448c0,0.1,0,0.3,0,0.4C6.2,448.3,6.2,448.2,6.2,448z"/>
		
			<linearGradient id="SVGID_16_" gradientUnits="userSpaceOnUse" x1="6.2305" y1="-14.041" x2="6.2305" y2="605.2915" gradientTransform="matrix(1 0 0 -1 0 600)">
			<stop  offset="0.1838" style="stop-color:#FFFFFF;stop-opacity:0"/>
			<stop  offset="0.2773" style="stop-color:#EEC9D5;stop-opacity:0.1145"/>
			<stop  offset="0.3805" style="stop-color:#DD94AB;stop-opacity:0.241"/>
			<stop  offset="0.4853" style="stop-color:#CF6788;stop-opacity:0.3695"/>
			<stop  offset="0.5898" style="stop-color:#C4426B;stop-opacity:0.4974"/>
			<stop  offset="0.6938" style="stop-color:#BB2655;stop-opacity:0.6248"/>
			<stop  offset="0.797" style="stop-color:#B41145;stop-opacity:0.7513"/>
			<stop  offset="0.8994" style="stop-color:#B0053B;stop-opacity:0.8768"/>
			<stop  offset="1" style="stop-color:#AF0138"/>
		</linearGradient>
		<path class="st19" d="M6.2,448c0,0.1,0,0.3,0,0.4C6.2,448.3,6.2,448.2,6.2,448z"/>
		<path class="st4" d="M6.8,428.5c0,0.3,0,0.6,0,0.9C6.8,429.1,6.8,428.8,6.8,428.5z"/>
		
			<linearGradient id="SVGID_17_" gradientUnits="userSpaceOnUse" x1="6.8129" y1="-14.041" x2="6.8129" y2="605.2915" gradientTransform="matrix(1 0 0 -1 0 600)">
			<stop  offset="0.1838" style="stop-color:#FFFFFF;stop-opacity:0"/>
			<stop  offset="0.2773" style="stop-color:#EEC9D5;stop-opacity:0.1145"/>
			<stop  offset="0.3805" style="stop-color:#DD94AB;stop-opacity:0.241"/>
			<stop  offset="0.4853" style="stop-color:#CF6788;stop-opacity:0.3695"/>
			<stop  offset="0.5898" style="stop-color:#C4426B;stop-opacity:0.4974"/>
			<stop  offset="0.6938" style="stop-color:#BB2655;stop-opacity:0.6248"/>
			<stop  offset="0.797" style="stop-color:#B41145;stop-opacity:0.7513"/>
			<stop  offset="0.8994" style="stop-color:#B0053B;stop-opacity:0.8768"/>
			<stop  offset="1" style="stop-color:#AF0138"/>
		</linearGradient>
		<path class="st20" d="M6.8,428.5c0,0.3,0,0.6,0,0.9C6.8,429.1,6.8,428.8,6.8,428.5z"/>
		<path class="st4" d="M55.4,134.7c0,1,0.1,1.9,0.1,2.9C55.4,136.7,55.4,135.7,55.4,134.7z"/>
		
			<linearGradient id="SVGID_18_" gradientUnits="userSpaceOnUse" x1="55.4195" y1="-14.041" x2="55.4195" y2="605.2915" gradientTransform="matrix(1 0 0 -1 0 600)">
			<stop  offset="0.1838" style="stop-color:#FFFFFF;stop-opacity:0"/>
			<stop  offset="0.2773" style="stop-color:#EEC9D5;stop-opacity:0.1145"/>
			<stop  offset="0.3805" style="stop-color:#DD94AB;stop-opacity:0.241"/>
			<stop  offset="0.4853" style="stop-color:#CF6788;stop-opacity:0.3695"/>
			<stop  offset="0.5898" style="stop-color:#C4426B;stop-opacity:0.4974"/>
			<stop  offset="0.6938" style="stop-color:#BB2655;stop-opacity:0.6248"/>
			<stop  offset="0.797" style="stop-color:#B41145;stop-opacity:0.7513"/>
			<stop  offset="0.8994" style="stop-color:#B0053B;stop-opacity:0.8768"/>
			<stop  offset="1" style="stop-color:#AF0138"/>
		</linearGradient>
		<path class="st21" d="M55.4,134.7c0,1,0.1,1.9,0.1,2.9C55.4,136.7,55.4,135.7,55.4,134.7z"/>
	</g>
</g>
</svg>
